<svg width="14" height="10" viewBox="0 0 14 10" fill="none" xmlns="http://www.w3.org/2000/svg">
<path d="M5.11539 10C4.99572 9.99963 4.87741 9.97586 4.7678 9.93015C4.6582 9.88444 4.55965 9.81778 4.47827 9.7343L0.236577 5.44166C0.0780167 5.28091 -0.00692349 5.06682 0.000441987 4.84648C0.00780746 4.62615 0.106875 4.41763 0.275852 4.26679C0.444828 4.11594 0.669872 4.03514 0.901475 4.04214C1.13308 4.04915 1.35227 4.1434 1.51083 4.30415L5.10667 7.94916L12.4467 0.310412C12.5212 0.22217 12.6139 0.149346 12.719 0.0964136C12.8242 0.043481 12.9396 0.0115572 13.0582 0.00260293C13.1768 -0.0063513 13.296 0.00785317 13.4086 0.0443437C13.5212 0.0808342 13.6248 0.13884 13.713 0.2148C13.8012 0.290759 13.8721 0.383067 13.9215 0.486056C13.9708 0.589044 13.9974 0.700538 13.9998 0.813688C14.0022 0.926839 13.9802 1.03926 13.9353 1.14404C13.8903 1.24882 13.8233 1.34376 13.7384 1.42301L5.76125 9.726C5.68064 9.81099 5.58243 9.8792 5.47279 9.92635C5.36315 9.9735 5.24444 9.99858 5.12412 10H5.11539Z" fill="#0047D1"/>
</svg>
