<svg width="181" height="40" viewBox="0 0 181 40" fill="none" xmlns="http://www.w3.org/2000/svg">
<path d="M52.6186 29.2482C48.3006 29.2482 46.1416 26.8783 46.1416 22.1384C46.1416 19.7808 46.7289 17.9817 47.9036 16.7409C49.0782 15.4918 50.7615 14.8672 52.9536 14.8672C54.5584 14.8672 55.9978 15.1816 57.2717 15.8103L56.1549 18.7386C55.5593 18.4987 55.0051 18.3043 54.4922 18.1554C53.9794 17.9982 53.4665 17.9196 52.9536 17.9196C50.9849 17.9196 50.0005 19.3176 50.0005 22.1136C50.0005 24.8268 50.9849 26.1834 52.9536 26.1834C53.6816 26.1834 54.3558 26.0883 54.9762 25.898C55.5966 25.6995 56.217 25.3934 56.8374 24.9798V28.2183C56.2252 28.6071 55.6048 28.876 54.9762 29.0249C54.3558 29.1738 53.5699 29.2482 52.6186 29.2482Z" fill="#212529"/>
<path d="M62.5704 22.0391C62.5704 23.4123 62.7938 24.4504 63.2404 25.1535C63.6954 25.8567 64.4316 26.2082 65.4491 26.2082C66.4583 26.2082 67.1821 25.8608 67.6205 25.166C68.0672 24.4628 68.2905 23.4205 68.2905 22.0391C68.2905 20.666 68.0672 19.6361 67.6205 18.9495C67.1738 18.2629 66.4417 17.9196 65.4243 17.9196C64.4151 17.9196 63.6871 18.2629 63.2404 18.9495C62.7938 19.6278 62.5704 20.6577 62.5704 22.0391ZM72.1619 22.0391C72.1619 24.2974 71.5663 26.0635 70.3751 27.3374C69.1839 28.6113 67.5254 29.2482 65.3995 29.2482C64.0676 29.2482 62.893 28.9587 61.8756 28.3796C60.8581 27.7923 60.0764 26.9527 59.5304 25.8608C58.9845 24.7689 58.7115 23.495 58.7115 22.0391C58.7115 19.7726 59.3029 18.0106 60.4858 16.7533C61.6688 15.4959 63.3314 14.8672 65.4739 14.8672C66.8057 14.8672 67.9803 15.1568 68.9978 15.7358C70.0153 16.3148 70.797 17.1462 71.3429 18.2298C71.8889 19.3135 72.1619 20.5832 72.1619 22.0391Z" fill="#212529"/>
<path d="M82.399 29.2482C80.7694 29.2482 79.4914 28.6568 78.5649 27.4739H78.3664C78.4988 28.6319 78.5649 29.302 78.5649 29.484V35.1048H74.7805V15.1278H77.8577L78.3912 16.927H78.5649C79.45 15.5538 80.7612 14.8672 82.4983 14.8672C84.1362 14.8672 85.4183 15.5001 86.3448 16.7657C87.2713 18.0313 87.7345 19.7891 87.7345 22.0391C87.7345 23.5198 87.5153 24.8061 87.0769 25.898C86.6467 26.9899 86.0305 27.8213 85.2281 28.3921C84.4257 28.9628 83.4827 29.2482 82.399 29.2482ZM81.2823 17.8948C80.3476 17.8948 79.6651 18.1843 79.235 18.7634C78.8048 19.3341 78.5815 20.2813 78.5649 21.6048V22.0143C78.5649 23.5033 78.7841 24.5704 79.2226 25.2156C79.6692 25.8608 80.3724 26.1834 81.3319 26.1834C83.0277 26.1834 83.8756 24.7854 83.8756 21.9895C83.8756 20.6246 83.6647 19.603 83.2428 18.9247C82.8292 18.2381 82.1757 17.8948 81.2823 17.8948Z" fill="#212529"/>
<path d="M98.0958 14.8672C98.6086 14.8672 99.0346 14.9045 99.3738 14.9789L99.0884 18.5276C98.7823 18.4449 98.4101 18.4035 97.9717 18.4035C96.764 18.4035 95.8209 18.7137 95.1426 19.3341C94.4726 19.9546 94.1376 20.8231 94.1376 21.9398V29H90.3531V15.1278H93.2194L93.7777 17.4605H93.9639C94.394 16.683 94.9731 16.0584 95.701 15.5869C96.4372 15.1071 97.2355 14.8672 98.0958 14.8672Z" fill="#212529"/>
<path d="M104.4 22.0391C104.4 23.4123 104.623 24.4504 105.07 25.1535C105.525 25.8567 106.261 26.2082 107.278 26.2082C108.287 26.2082 109.011 25.8608 109.45 25.166C109.896 24.4628 110.12 23.4205 110.12 22.0391C110.12 20.666 109.896 19.6361 109.45 18.9495C109.003 18.2629 108.271 17.9196 107.253 17.9196C106.244 17.9196 105.516 18.2629 105.07 18.9495C104.623 19.6278 104.4 20.6577 104.4 22.0391ZM113.991 22.0391C113.991 24.2974 113.395 26.0635 112.204 27.3374C111.013 28.6113 109.355 29.2482 107.229 29.2482C105.897 29.2482 104.722 28.9587 103.705 28.3796C102.687 27.7923 101.906 26.9527 101.36 25.8608C100.814 24.7689 100.541 23.495 100.541 22.0391C100.541 19.7726 101.132 18.0106 102.315 16.7533C103.498 15.4959 105.161 14.8672 107.303 14.8672C108.635 14.8672 109.809 15.1568 110.827 15.7358C111.844 16.3148 112.626 17.1462 113.172 18.2298C113.718 19.3135 113.991 20.5832 113.991 22.0391Z" fill="#212529"/>
<path d="M124.228 29.2482C122.599 29.2482 121.321 28.6568 120.394 27.4739H120.196C120.328 28.6319 120.394 29.302 120.394 29.484V35.1048H116.61V15.1278H119.687L120.22 16.927H120.394C121.279 15.5538 122.59 14.8672 124.327 14.8672C125.965 14.8672 127.247 15.5001 128.174 16.7657C129.1 18.0313 129.564 19.7891 129.564 22.0391C129.564 23.5198 129.344 24.8061 128.906 25.898C128.476 26.9899 127.86 27.8213 127.057 28.3921C126.255 28.9628 125.312 29.2482 124.228 29.2482ZM123.111 17.8948C122.177 17.8948 121.494 18.1843 121.064 18.7634C120.634 19.3341 120.411 20.2813 120.394 21.6048V22.0143C120.394 23.5033 120.613 24.5704 121.052 25.2156C121.498 25.8608 122.202 26.1834 123.161 26.1834C124.857 26.1834 125.705 24.7854 125.705 21.9895C125.705 20.6246 125.494 19.603 125.072 18.9247C124.658 18.2381 124.005 17.8948 123.111 17.8948Z" fill="#212529"/>
<path d="M137.927 17.5598C137.125 17.5598 136.496 17.8162 136.041 18.3291C135.586 18.8337 135.326 19.5534 135.259 20.4881H140.57C140.554 19.5534 140.31 18.8337 139.838 18.3291C139.367 17.8162 138.73 17.5598 137.927 17.5598ZM138.461 29.2482C136.227 29.2482 134.482 28.6319 133.225 27.3994C131.967 26.1669 131.339 24.4215 131.339 22.1632C131.339 19.8387 131.918 18.0437 133.076 16.7781C134.242 15.5042 135.851 14.8672 137.902 14.8672C139.863 14.8672 141.389 15.4256 142.481 16.5423C143.573 17.6591 144.119 19.2018 144.119 21.1705V23.0069H135.173C135.214 24.0823 135.532 24.9219 136.128 25.5258C136.724 26.1296 137.559 26.4316 138.634 26.4316C139.47 26.4316 140.26 26.3447 141.004 26.171C141.749 25.9973 142.526 25.7202 143.337 25.3397V28.268C142.675 28.5989 141.968 28.8429 141.215 29C140.463 29.1655 139.544 29.2482 138.461 29.2482Z" fill="#212529"/>
<path d="M154.43 14.8672C154.943 14.8672 155.369 14.9045 155.708 14.9789L155.423 18.5276C155.117 18.4449 154.745 18.4035 154.306 18.4035C153.099 18.4035 152.156 18.7137 151.477 19.3341C150.807 19.9546 150.472 20.8231 150.472 21.9398V29H146.688V15.1278H149.554L150.112 17.4605H150.299C150.729 16.683 151.308 16.0584 152.036 15.5869C152.772 15.1071 153.57 14.8672 154.43 14.8672Z" fill="#212529"/>
<path d="M163.563 26.233C164.225 26.233 165.019 26.0883 165.946 25.7988V28.6154C165.003 29.0373 163.845 29.2482 162.471 29.2482C160.958 29.2482 159.853 28.8677 159.158 28.1067C158.472 27.3374 158.129 26.1875 158.129 24.6572V17.9693H156.317V16.3686L158.402 15.103L159.493 12.1747H161.913V15.1278H165.797V17.9693H161.913V24.6572C161.913 25.1949 162.062 25.592 162.36 25.8484C162.666 26.1048 163.067 26.233 163.563 26.233Z" fill="#212529"/>
<path d="M166.269 15.1278H170.413L173.031 22.9325C173.255 23.6108 173.408 24.4132 173.49 25.3397H173.565C173.656 24.4876 173.834 23.6853 174.098 22.9325L176.667 15.1278H180.724L174.855 30.7744C174.317 32.222 173.548 33.3057 172.547 34.0253C171.555 34.745 170.392 35.1048 169.061 35.1048C168.407 35.1048 167.766 35.0345 167.137 34.8939V31.8911C167.592 31.9987 168.089 32.0524 168.626 32.0524C169.296 32.0524 169.88 31.8456 170.376 31.432C170.88 31.0267 171.273 30.4104 171.555 29.5832L171.778 28.9008L166.269 15.1278Z" fill="#212529"/>
<path d="M35.0034 40H12.4726C10.7667 40 9.12601 39.394 7.83028 38.2847C6.24557 36.9331 5.33203 34.9569 5.33203 32.8688V25.7469C5.33203 21.8131 8.52942 18.6157 12.4726 18.6157C16.4064 18.6157 19.6037 21.8131 19.6037 25.7469H16.1733C16.1733 23.7054 14.514 22.0461 12.4726 22.0461C10.4311 22.0461 8.77178 23.7054 8.77178 25.7469V32.8688C8.77178 33.9501 9.2472 34.9755 10.0675 35.684C10.7387 36.2619 11.587 36.5695 12.4726 36.5695H31.573V4.44651L19.5851 7.56932V11.6989H16.1547V4.92192L35.0034 0V40Z" fill="#0E4FC1"/>
<path d="M3.43043 39.9998H0V13.5352H20.8716C25.6537 13.5352 29.5409 17.4224 29.5409 22.2045C29.5409 26.9866 25.6537 30.8738 20.8716 30.8738H19.6318V34.7982H16.2013V27.434H20.8809C23.7707 27.434 26.1198 25.0849 26.1198 22.1951C26.1198 19.3054 23.7707 16.9563 20.8809 16.9563H3.44908V39.9998H3.43043Z" fill="#0E4FC1"/>
</svg>
