<svg width="50" height="50" viewBox="0 0 50 50" fill="none" xmlns="http://www.w3.org/2000/svg">
<circle cx="25" cy="25" r="25" fill="#F34C4C"/>
<path d="M34.7528 27.4872L34.949 26.4647C35.1452 25.4521 34.7678 24.373 33.9429 23.656C31.9831 21.951 29.156 20.9951 24.9915 21C20.8345 21.0049 17.6299 21.9658 15.8476 23.6708C15.4769 24.0282 15.2134 24.4796 15.0861 24.9751C14.9589 25.4707 14.9729 25.9913 15.1265 26.4795L15.4364 27.502C15.5852 27.9699 15.8927 28.3731 16.3074 28.644C16.722 28.915 17.2185 29.0372 17.7137 28.9901L19.7484 28.7893C20.622 28.7031 21.0045 27.98 21.252 27.1546C21.6219 25.9178 21.8769 24.9988 21.8769 24.9988C22.8293 24.6477 23.7342 24.3828 25.0015 24.3828C26.2688 24.3828 27.1912 24.6218 28.1261 24.9988C28.1261 24.9988 28.3711 25.9165 28.751 27.1546C29.031 28.0662 29.6922 28.708 30.5846 28.793L32.6306 28.9877C33.6592 29.0862 34.5678 28.4432 34.7528 27.486V27.4872Z" fill="white"/>
</svg>
