<svg width="14" height="12" viewBox="0 0 14 12" fill="none" xmlns="http://www.w3.org/2000/svg">
<path d="M13.0319 1.22171H4.44371C4.37901 1.22171 4.32607 1.27546 4.32607 1.34116V2.17736C4.32607 2.24307 4.37901 2.29682 4.44371 2.29682H13.0319C13.0967 2.29682 13.1496 2.24307 13.1496 2.17736V1.34116C13.1496 1.27546 13.0967 1.22171 13.0319 1.22171ZM13.0319 5.46243H4.44371C4.37901 5.46243 4.32607 5.51619 4.32607 5.58189V6.41809C4.32607 6.48379 4.37901 6.53754 4.44371 6.53754H13.0319C13.0967 6.53754 13.1496 6.48379 13.1496 6.41809V5.58189C13.1496 5.51619 13.0967 5.46243 13.0319 5.46243ZM13.0319 9.70316H4.44371C4.37901 9.70316 4.32607 9.75691 4.32607 9.82261V10.6588C4.32607 10.7245 4.37901 10.7783 4.44371 10.7783H13.0319C13.0967 10.7783 13.1496 10.7245 13.1496 10.6588V9.82261C13.1496 9.75691 13.0967 9.70316 13.0319 9.70316ZM1.1496 1.75926C1.1496 1.86908 1.1709 1.97781 1.21228 2.07926C1.25367 2.18072 1.31433 2.2729 1.3908 2.35055C1.46728 2.42819 1.55806 2.48979 1.65798 2.53181C1.75789 2.57383 1.86498 2.59546 1.97313 2.59546C2.08127 2.59546 2.18836 2.57383 2.28828 2.53181C2.38819 2.48979 2.47898 2.42819 2.55545 2.35055C2.63192 2.2729 2.69258 2.18072 2.73397 2.07926C2.77535 1.97781 2.79666 1.86908 2.79666 1.75926C2.79666 1.64945 2.77535 1.54072 2.73397 1.43926C2.69258 1.33781 2.63192 1.24563 2.55545 1.16798C2.47898 1.09033 2.38819 1.02874 2.28828 0.986717C2.18836 0.944694 2.08127 0.923065 1.97313 0.923065C1.86498 0.923065 1.75789 0.944694 1.65798 0.986717C1.55806 1.02874 1.46728 1.09033 1.3908 1.16798C1.31433 1.24563 1.25367 1.33781 1.21228 1.43926C1.1709 1.54072 1.1496 1.64945 1.1496 1.75926ZM1.1496 5.99999C1.1496 6.1098 1.1709 6.21854 1.21228 6.31999C1.25367 6.42144 1.31433 6.51362 1.3908 6.59127C1.46728 6.66892 1.55806 6.73051 1.65798 6.77253C1.75789 6.81456 1.86498 6.83619 1.97313 6.83619C2.08127 6.83619 2.18836 6.81456 2.28828 6.77253C2.38819 6.73051 2.47898 6.66892 2.55545 6.59127C2.63192 6.51362 2.69258 6.42144 2.73397 6.31999C2.77535 6.21854 2.79666 6.1098 2.79666 5.99999C2.79666 5.89018 2.77535 5.78144 2.73397 5.67999C2.69258 5.57854 2.63192 5.48635 2.55545 5.40871C2.47898 5.33106 2.38819 5.26946 2.28828 5.22744C2.18836 5.18542 2.08127 5.16379 1.97313 5.16379C1.86498 5.16379 1.75789 5.18542 1.65798 5.22744C1.55806 5.26946 1.46728 5.33106 1.3908 5.40871C1.31433 5.48635 1.25367 5.57854 1.21228 5.67999C1.1709 5.78144 1.1496 5.89018 1.1496 5.99999ZM1.1496 10.2407C1.1496 10.3505 1.1709 10.4593 1.21228 10.5607C1.25367 10.6622 1.31433 10.7543 1.3908 10.832C1.46728 10.9096 1.55806 10.9712 1.65798 11.0133C1.75789 11.0553 1.86498 11.0769 1.97313 11.0769C2.08127 11.0769 2.18836 11.0553 2.28828 11.0133C2.38819 10.9712 2.47898 10.9096 2.55545 10.832C2.63192 10.7543 2.69258 10.6622 2.73397 10.5607C2.77535 10.4593 2.79666 10.3505 2.79666 10.2407C2.79666 10.1309 2.77535 10.0222 2.73397 9.92071C2.69258 9.81926 2.63192 9.72708 2.55545 9.64943C2.47898 9.57178 2.38819 9.51019 2.28828 9.46816C2.18836 9.42614 2.08127 9.40451 1.97313 9.40451C1.86498 9.40451 1.75789 9.42614 1.65798 9.46816C1.55806 9.51019 1.46728 9.57178 1.3908 9.64943C1.31433 9.72708 1.25367 9.81926 1.21228 9.92071C1.1709 10.0222 1.1496 10.1309 1.1496 10.2407Z" fill="#0047D1"/>
<path fill-rule="evenodd" clip-rule="evenodd" d="M1.56105 0.75627C1.69158 0.701372 1.83161 0.673065 1.97313 0.673065C2.11464 0.673065 2.25467 0.701372 2.3852 0.75627C2.51572 0.811164 2.63406 0.89152 2.73357 0.99256C2.83307 1.09359 2.9118 1.21333 2.96545 1.34484C3.01909 1.47634 3.04666 1.61715 3.04666 1.75926C3.04666 1.90138 3.01909 2.04219 2.96545 2.17369C2.9118 2.3052 2.83307 2.42494 2.73357 2.52597C2.63406 2.62701 2.51572 2.70736 2.3852 2.76226C2.25467 2.81716 2.11464 2.84546 1.97313 2.84546C1.83161 2.84546 1.69158 2.81716 1.56105 2.76226C1.43053 2.70736 1.31219 2.62701 1.21268 2.52597C1.11318 2.42494 1.03445 2.3052 0.980804 2.17369C0.92716 2.04219 0.899597 1.90138 0.899597 1.75926C0.899597 1.61715 0.92716 1.47634 0.980804 1.34484C1.03445 1.21333 1.11318 1.09359 1.21268 0.99256C1.31219 0.89152 1.43053 0.811164 1.56105 0.75627ZM1.97313 1.17307C1.89834 1.17307 1.8242 1.18802 1.7549 1.21716C1.68559 1.24632 1.62236 1.28915 1.56892 1.3434C1.51548 1.39767 1.47289 1.4623 1.44376 1.53369C1.41464 1.6051 1.3996 1.68176 1.3996 1.75926C1.3996 1.83677 1.41464 1.91343 1.44376 1.98483C1.47289 2.05623 1.51548 2.12086 1.56892 2.17512C1.62236 2.22938 1.68559 2.27221 1.7549 2.30136C1.8242 2.33051 1.89834 2.34546 1.97313 2.34546C2.04791 2.34546 2.12205 2.33051 2.19135 2.30136C2.26067 2.27221 2.32389 2.22938 2.37733 2.17512C2.43077 2.12086 2.47336 2.05623 2.50249 1.98483C2.53162 1.91343 2.54666 1.83677 2.54666 1.75926C2.54666 1.68176 2.53162 1.6051 2.50249 1.53369C2.47336 1.4623 2.43077 1.39767 2.37733 1.3434C2.32389 1.28915 2.26067 1.24632 2.19135 1.21716C2.12205 1.18802 2.04791 1.17307 1.97313 1.17307ZM4.07607 1.34116C4.07607 1.141 4.23735 0.971708 4.44371 0.971708H13.0319C13.2383 0.971708 13.3996 1.141 13.3996 1.34116V2.17736C13.3996 2.37752 13.2383 2.54682 13.0319 2.54682H4.44371C4.23735 2.54682 4.07607 2.37752 4.07607 2.17736V1.34116ZM4.57607 1.47171V2.04682H12.8996V1.47171H4.57607ZM1.56105 4.99699C1.69158 4.9421 1.83161 4.91379 1.97313 4.91379C2.11464 4.91379 2.25467 4.9421 2.3852 4.99699C2.51572 5.05189 2.63406 5.13224 2.73357 5.23328C2.83307 5.33432 2.9118 5.45405 2.96545 5.58556C3.01909 5.71706 3.04666 5.85787 3.04666 5.99999C3.04666 6.1421 3.01909 6.28292 2.96545 6.41442C2.9118 6.54593 2.83307 6.66566 2.73357 6.76669C2.63406 6.86773 2.51572 6.94809 2.3852 7.00298C2.25467 7.05788 2.11464 7.08619 1.97313 7.08619C1.83161 7.08619 1.69158 7.05788 1.56105 7.00298C1.43053 6.94809 1.31219 6.86773 1.21268 6.76669C1.11318 6.66566 1.03445 6.54593 0.980804 6.41442C0.92716 6.28292 0.899597 6.1421 0.899597 5.99999C0.899597 5.85787 0.92716 5.71706 0.980804 5.58556C1.03445 5.45405 1.11318 5.33432 1.21268 5.23328C1.31219 5.13224 1.43053 5.05189 1.56105 4.99699ZM1.97313 5.41379C1.89834 5.41379 1.8242 5.42874 1.7549 5.45789C1.68559 5.48704 1.62236 5.52987 1.56892 5.58413C1.51548 5.63839 1.47289 5.70302 1.44376 5.77442C1.41464 5.84582 1.3996 5.92248 1.3996 5.99999C1.3996 6.07749 1.41464 6.15415 1.44376 6.22556C1.47289 6.29696 1.51548 6.36158 1.56892 6.41585C1.62236 6.4701 1.68559 6.51294 1.7549 6.54209C1.8242 6.57124 1.89834 6.58619 1.97313 6.58619C2.04791 6.58619 2.12205 6.57124 2.19135 6.54209C2.26067 6.51294 2.32389 6.4701 2.37733 6.41585C2.43077 6.36158 2.47336 6.29696 2.50249 6.22556C2.53162 6.15415 2.54666 6.07749 2.54666 5.99999C2.54666 5.92248 2.53162 5.84582 2.50249 5.77442C2.47336 5.70302 2.43077 5.63839 2.37733 5.58413C2.32389 5.52987 2.26067 5.48704 2.19135 5.45789C2.12205 5.42874 2.04791 5.41379 1.97313 5.41379ZM4.07607 5.58189C4.07607 5.38173 4.23735 5.21243 4.44371 5.21243H13.0319C13.2383 5.21243 13.3996 5.38173 13.3996 5.58189V6.41809C13.3996 6.61825 13.2383 6.78754 13.0319 6.78754H4.44371C4.23735 6.78754 4.07607 6.61825 4.07607 6.41809V5.58189ZM4.57607 5.71243V6.28754H12.8996V5.71243H4.57607ZM1.56105 9.23772C1.69158 9.18282 1.83161 9.15451 1.97313 9.15451C2.11464 9.15451 2.25467 9.18282 2.3852 9.23772C2.51572 9.29261 2.63406 9.37297 2.73357 9.47401C2.83307 9.57504 2.9118 9.69477 2.96545 9.82628C3.01909 9.95778 3.04666 10.0986 3.04666 10.2407C3.04666 10.3828 3.01909 10.5236 2.96545 10.6551C2.9118 10.7866 2.83307 10.9064 2.73357 11.0074C2.63406 11.1085 2.51572 11.1888 2.3852 11.2437C2.25467 11.2986 2.11464 11.3269 1.97313 11.3269C1.83161 11.3269 1.69158 11.2986 1.56105 11.2437C1.43053 11.1888 1.31219 11.1085 1.21268 11.0074C1.11318 10.9064 1.03445 10.7866 0.980804 10.6551C0.92716 10.5236 0.899597 10.3828 0.899597 10.2407C0.899597 10.0986 0.92716 9.95778 0.980804 9.82628C1.03445 9.69477 1.11318 9.57504 1.21268 9.47401C1.31219 9.37297 1.43053 9.29261 1.56105 9.23772ZM1.97313 9.65451C1.89834 9.65451 1.8242 9.66946 1.7549 9.69861C1.68559 9.72776 1.62236 9.7706 1.56892 9.82485C1.51548 9.87912 1.47289 9.94374 1.44376 10.0151C1.41464 10.0865 1.3996 10.1632 1.3996 10.2407C1.3996 10.3182 1.41464 10.3949 1.44376 10.4663C1.47289 10.5377 1.51548 10.6023 1.56892 10.6566C1.62236 10.7108 1.68559 10.7537 1.7549 10.7828C1.8242 10.812 1.89834 10.8269 1.97313 10.8269C2.04791 10.8269 2.12205 10.812 2.19135 10.7828C2.26067 10.7537 2.32389 10.7108 2.37733 10.6566C2.43077 10.6023 2.47336 10.5377 2.50249 10.4663C2.53162 10.3949 2.54666 10.3182 2.54666 10.2407C2.54666 10.1632 2.53162 10.0865 2.50249 10.0151C2.47336 9.94374 2.43077 9.87912 2.37733 9.82485C2.32389 9.7706 2.26067 9.72776 2.19135 9.69861C2.12205 9.66946 2.04791 9.65451 1.97313 9.65451ZM4.07607 9.82261C4.07607 9.62245 4.23735 9.45316 4.44371 9.45316H13.0319C13.2383 9.45316 13.3996 9.62245 13.3996 9.82261V10.6588C13.3996 10.859 13.2383 11.0283 13.0319 11.0283H4.44371C4.23735 11.0283 4.07607 10.859 4.07607 10.6588V9.82261ZM4.57607 9.95316V10.5283H12.8996V9.95316H4.57607Z" fill="#0047D1"/>
</svg>
