<svg width="8" height="8" viewBox="0 0 8 8" fill="none" xmlns="http://www.w3.org/2000/svg">
<path d="M7.43618 0.563939C7.12469 0.25245 6.61967 0.25245 6.30818 0.563939L4.00018 2.87194L1.69218 0.563939C1.38069 0.25245 0.875672 0.25245 0.564183 0.563939C0.252694 0.875427 0.252694 1.38045 0.564183 1.69194L2.87218 3.99994L0.564183 6.30794C0.252694 6.61943 0.252694 7.12445 0.564183 7.43594C0.875672 7.74743 1.38069 7.74743 1.69218 7.43594L4.00018 5.12794L6.30818 7.43594C6.61967 7.74743 7.12469 7.74743 7.43618 7.43594C7.74767 7.12445 7.74767 6.61943 7.43618 6.30794L5.12818 3.99994L7.43618 1.69194C7.74767 1.38045 7.74767 0.875427 7.43618 0.563939Z" fill="#1C1C1C"/>
</svg>
