<svg width="16" height="12" viewBox="0 0 16 12" fill="none" xmlns="http://www.w3.org/2000/svg">
<path d="M0 2.29446V11.5709C0 11.8741 0.297962 12.0814 0.57194 11.9689L4.17094 10.2857V0L0.524496 1.49866C0.369696 1.56228 0.236996 1.67209 0.143509 1.81394C0.0500222 1.95578 3.70746e-05 2.12315 0 2.29446ZM5.49744 10.2857L10.5026 12V1.71429L5.49744 0V10.2857ZM15.4281 0.0310714L11.8291 1.71429V12L15.4755 10.5013C15.6303 10.4377 15.763 10.3279 15.8565 10.1861C15.95 10.0442 16 9.87685 16 9.70554V0.429107C16 0.125893 15.702 -0.0814286 15.4281 0.0310714Z" fill="#0047D1"/>
</svg>
