<svg width="17" height="12" viewBox="0 0 17 12" fill="none" xmlns="http://www.w3.org/2000/svg">
<path fill-rule="evenodd" clip-rule="evenodd" d="M1.29286 0.135742C0.94997 0.135742 0.621127 0.271953 0.378669 0.514411C0.136211 0.756869 0 1.08571 0 1.4286V10.5715C0 10.9143 0.136211 11.2432 0.378669 11.4856C0.621127 11.7281 0.94997 11.8643 1.29286 11.8643H15.0071C15.35 11.8643 15.6789 11.7281 15.9213 11.4856C16.1638 11.2432 16.3 10.9143 16.3 10.5715V1.4286C16.3 1.08571 16.1638 0.756869 15.9213 0.514411C15.6789 0.271953 15.35 0.135742 15.0071 0.135742H1.29286ZM8.15 5.12049L3.03046 1.5786H13.2695L8.15 5.12049ZM1.44286 10.4215V2.23482L7.73879 6.59185C7.85955 6.67562 8.00302 6.72052 8.15 6.72052C8.29698 6.72052 8.44045 6.67562 8.56121 6.59185L14.8571 2.23482V10.4215H1.44286Z" fill="#0047D1"/>
</svg>
