<svg width="47" height="47" viewBox="0 0 47 47" fill="none" xmlns="http://www.w3.org/2000/svg">
<path d="M29.5381 20C29.5381 20.4134 29.5739 20.7227 29.6455 20.9277C29.7204 21.1296 29.8392 21.2305 30.002 21.2305C30.3145 21.2305 30.4707 20.8203 30.4707 20C30.4707 19.1862 30.3145 18.7793 30.002 18.7793C29.8392 18.7793 29.7204 18.8802 29.6455 19.082C29.5739 19.2806 29.5381 19.5866 29.5381 20ZM31.7012 19.9902C31.7012 20.7389 31.5563 21.3021 31.2666 21.6797C30.9769 22.054 30.5521 22.2412 29.9922 22.2412C29.4551 22.2412 29.04 22.0492 28.7471 21.665C28.4541 21.2777 28.3076 20.7194 28.3076 19.9902C28.3076 18.5026 28.8691 17.7588 29.9922 17.7588C30.5423 17.7588 30.9639 17.9525 31.2568 18.3398C31.5531 18.724 31.7012 19.2741 31.7012 19.9902ZM35.0605 17.8613L31.1006 25H29.9287L33.8887 17.8613H35.0605ZM34.5381 22.8516C34.5381 23.265 34.5739 23.5742 34.6455 23.7793C34.7204 23.9811 34.8392 24.082 35.002 24.082C35.3145 24.082 35.4707 23.6719 35.4707 22.8516C35.4707 22.0378 35.3145 21.6309 35.002 21.6309C34.8392 21.6309 34.7204 21.7318 34.6455 21.9336C34.5739 22.1322 34.5381 22.4382 34.5381 22.8516ZM36.7012 22.8418C36.7012 23.5872 36.5563 24.1488 36.2666 24.5264C35.9769 24.9007 35.5521 25.0879 34.9922 25.0879C34.4551 25.0879 34.04 24.8958 33.7471 24.5117C33.4541 24.1243 33.3076 23.5677 33.3076 22.8418C33.3076 21.3542 33.8691 20.6104 34.9922 20.6104C35.5423 20.6104 35.9639 20.804 36.2568 21.1914C36.5531 21.5755 36.7012 22.1257 36.7012 22.8418Z" fill="#8E98A1"/>
<path d="M13.75 28L17.7012 19.4346H12.5059V18.0195H19.417V19.1406L15.4863 28H13.75ZM24.0039 21.7588C25.0111 21.7588 25.8086 22.0254 26.3965 22.5586C26.9844 23.0918 27.2783 23.8187 27.2783 24.7393C27.2783 25.8057 26.9434 26.6396 26.2734 27.2412C25.6081 27.8382 24.6602 28.1367 23.4297 28.1367C22.3132 28.1367 21.4359 27.9567 20.7979 27.5967V26.1406C21.167 26.3503 21.5908 26.512 22.0693 26.626C22.5479 26.7399 22.9922 26.7969 23.4023 26.7969C24.127 26.7969 24.6784 26.6351 25.0566 26.3115C25.4349 25.988 25.624 25.514 25.624 24.8896C25.624 23.6956 24.863 23.0986 23.3408 23.0986C23.1266 23.0986 22.8623 23.1214 22.5479 23.167C22.2334 23.208 21.9577 23.2559 21.7207 23.3105L21.0029 22.8867L21.3857 18.0059H26.5811V19.4346H22.8008L22.5752 21.9092C22.7347 21.8818 22.9284 21.8499 23.1562 21.8135C23.3887 21.777 23.6712 21.7588 24.0039 21.7588Z" fill="#1C1C1C"/>
<circle cx="23.5" cy="23.5" r="20.5" stroke="#E2EBF6" stroke-width="5" stroke-linecap="round" stroke-linejoin="round"/>
<path d="M44 23.5C44 34.8218 34.8218 44 23.5 44C12.1782 44 3 34.8218 3 23.5C3 12.1782 12.1782 3 23.5 3" stroke="#0047D1" stroke-width="5" stroke-linecap="round" stroke-linejoin="round"/>
</svg>
