<svg width="35" height="31" viewBox="0 0 35 31" fill="none" xmlns="http://www.w3.org/2000/svg">
<path d="M34.999 4.99987C34.999 3.67382 34.4723 2.40209 33.5346 1.46443C32.5969 0.52677 31.3252 0 29.9992 0H11.9996C10.6736 0 9.40184 0.52677 8.46418 1.46443C7.52653 2.40209 6.99976 3.67382 6.99976 4.99987V11.5117C7.49976 12 7.99976 12.5 8.99976 13.5L8.9997 7.99979H32.9991V22.9994C32.9991 23.795 32.683 24.5581 32.1204 25.1207C31.5578 25.6833 30.7948 25.9993 29.9992 25.9993H20.9998V27.9993H29.9992C31.3252 27.9993 32.5969 27.4725 33.5346 26.5348C34.4723 25.5972 34.999 24.3254 34.999 22.9994V4.99987ZM11.9996 1.99995H29.9992C30.7948 1.99995 31.5578 2.31601 32.1204 2.8786C32.683 3.4412 32.9991 4.20424 32.9991 4.99987V5.99984H8.9997V4.99987C8.9997 4.20424 9.31577 3.4412 9.87836 2.8786C10.441 2.31601 11.204 1.99995 11.9996 1.99995Z" fill="#0047D1"/>
<path fill-rule="evenodd" clip-rule="evenodd" d="M17.1696 29.9026C16.782 30.065 16.366 30.1491 15.9457 30.1499C15.5254 30.1489 15.1089 30.0646 14.7214 29.9021C14.334 29.7396 13.9823 29.5017 13.6871 29.2027L1.94845 17.4644L1.08417 13.1179L1.08378 13.116L0.805176 11.8052L2.11675 12.0838L2.11865 12.0842L6.1891 12.8938L6.46446 12.9494L18.2032 24.6878C18.5029 24.9825 18.741 25.3339 18.9035 25.7215C19.0661 26.1093 19.1499 26.5257 19.1499 26.9462C19.1499 27.3668 19.0661 27.7831 18.9035 28.1709C18.741 28.5584 18.5031 28.9097 18.2035 29.2043C17.9083 29.503 17.5569 29.7403 17.1696 29.9026ZM14.5354 27.5271L14.942 27.9514C15.2835 28.2925 15.6223 28.4387 15.9454 28.4387C16.2688 28.4387 16.6089 28.292 16.9499 27.9503C17.2915 27.609 17.4462 27.2698 17.4462 26.9461C17.4462 26.6228 17.2918 26.2838 16.951 25.9425L16.5266 25.5364L14.5354 27.5271ZM6.56632 15.5812C6.09903 16.4128 5.41163 17.0998 4.57971 17.5666L13.2853 26.271L15.2705 24.2849L6.56632 15.5812ZM3.08795 14.0879L3.49372 16.1144C3.84761 15.9492 4.17038 15.7233 4.44718 15.4465C4.72397 15.1697 4.94985 14.847 5.115 14.4931L3.08795 14.0879Z" fill="#0047D1"/>
</svg>
