<svg width="28" height="24" viewBox="0 0 28 24" fill="none" xmlns="http://www.w3.org/2000/svg">
<path d="M7.8563 12.5542C7.18853 12.5556 6.52441 12.6528 5.88427 12.8429L5.86257 12.8505L0.696783 14.8327C0.146714 15.0438 -0.134503 15.6551 0.0631908 16.2101L1.48802 20.2103C1.69255 20.7845 2.32975 21.0777 2.89892 20.8595L7.21162 19.2062L14.0436 22.9682C14.6213 23.2863 15.3122 23.3245 15.9214 23.0721L27.3309 18.345C27.8842 18.1158 28.1466 17.4812 27.9169 16.9281C27.6875 16.3758 27.0541 16.1138 26.5016 16.3426L15.0889 21.0675L7.38093 16.8239L3.15904 18.4388L2.46335 16.4798L6.5843 14.8985C6.59407 14.8942 7.10092 14.7249 7.8563 14.7249C8.61928 14.7249 9.50815 14.8942 10.2679 15.5823L10.2831 15.5899L10.2874 15.5942C11.4053 16.5656 12.2497 17.2439 13.424 17.6129C14.3934 17.9175 15.4708 17.9988 17.069 18.013C17.6688 18.0183 18.1535 17.5279 18.1505 16.928C18.1475 16.3291 17.6594 15.8478 17.0605 15.8397C15.5624 15.8195 14.6862 15.7328 14.0752 15.5389C13.3285 15.3099 12.7988 14.8985 11.7222 13.9652L11.7092 13.9576C10.4535 12.8299 8.96224 12.5499 7.8563 12.5542Z" fill="#0047D1"/>
<path d="M20.9713 4.84846C20.8628 4.73993 20.7542 4.52287 20.6457 4.41434L16.7386 0.941318C16.1959 0.507191 15.4362 0.507191 14.8935 0.941318L10.9864 4.41434C10.8778 4.52287 10.7693 4.73993 10.6608 4.84846C10.5522 5.06553 10.5522 5.17406 10.5522 5.39112V9.84093C10.5522 10.1665 10.6608 10.4921 10.9864 10.8177C11.2034 11.0348 11.529 11.2518 11.9632 11.2518H19.7775C20.103 11.2518 20.4286 11.1433 20.7542 10.8177C20.9713 10.6007 21.1884 10.2751 21.1884 9.84093V5.39112C21.0798 5.17406 21.0798 5.06553 20.9713 4.84846ZM19.1263 5.60819V9.18974H12.5058V5.60819L15.8703 2.67783L19.1263 5.60819Z" fill="#0047D1"/>
</svg>
