<svg width="17" height="16" viewBox="0 0 17 16" fill="none" xmlns="http://www.w3.org/2000/svg">
<path d="M15.1863 5.86667H15.118C15.0179 5.86578 14.9205 5.83478 14.8383 5.7777C14.7561 5.72063 14.693 5.64012 14.6572 5.54667C14.6195 5.45643 14.6096 5.35702 14.6286 5.2611C14.6475 5.16518 14.6946 5.07707 14.7639 5.008L14.8124 4.95947C15.105 4.66578 15.2692 4.26814 15.2692 3.8536C15.2692 3.43906 15.105 3.04142 14.8124 2.74773L14.0065 1.9424C13.7131 1.64961 13.3155 1.48518 12.9009 1.48518C12.4864 1.48518 12.0888 1.64961 11.7953 1.9424L11.7468 1.99093C11.6753 2.05979 11.5852 2.10628 11.4877 2.1247C11.3901 2.14311 11.2893 2.13265 11.1977 2.09459C11.106 2.05653 11.0274 1.99254 10.9716 1.91046C10.9157 1.82838 10.8851 1.73179 10.8833 1.63253V1.56373C10.8829 1.14914 10.718 0.75164 10.4249 0.458475C10.1317 0.16531 9.7342 0.000423564 9.3196 0H8.1804C7.7658 0.000423564 7.36831 0.16531 7.07514 0.458475C6.78198 0.75164 6.61709 1.14914 6.61667 1.56373V1.63253C6.61407 1.73108 6.58296 1.82675 6.5271 1.90798C6.47125 1.98921 6.39305 2.0525 6.30196 2.0902C6.21088 2.1279 6.11082 2.13839 6.01389 2.12039C5.91697 2.10239 5.82735 2.05668 5.75587 1.9888L5.71 1.94027C5.41655 1.64748 5.01894 1.48305 4.6044 1.48305C4.18986 1.48305 3.79225 1.64748 3.4988 1.94027L2.69027 2.7456C2.39771 3.03928 2.23344 3.43693 2.23344 3.85147C2.23344 4.266 2.39771 4.66365 2.69027 4.95733L2.7388 5.00587C2.8087 5.07738 2.85548 5.16825 2.87307 5.26668C2.89067 5.36512 2.87826 5.46657 2.83747 5.55787C2.80087 5.6488 2.73798 5.72675 2.65685 5.78176C2.57572 5.83677 2.48002 5.86633 2.382 5.86667H2.31373C1.89914 5.86709 1.50164 6.03198 1.20847 6.32514C0.91531 6.61831 0.750424 7.0158 0.75 7.4304V8.5696C0.750424 8.9842 0.91531 9.38169 1.20847 9.67486C1.50164 9.96802 1.89914 10.1329 2.31373 10.1333H2.382C2.48206 10.1342 2.57954 10.1652 2.66173 10.2223C2.74392 10.2794 2.80702 10.3599 2.8428 10.4533C2.88047 10.5436 2.89044 10.643 2.87145 10.7389C2.85245 10.8348 2.80535 10.9229 2.73613 10.992L2.6876 11.0405C2.39504 11.3342 2.23077 11.7319 2.23077 12.1464C2.23077 12.5609 2.39504 12.9586 2.6876 13.2523L3.49293 14.0571C3.78634 14.3501 4.18409 14.5148 4.5988 14.5148C5.01351 14.5148 5.41126 14.3501 5.70467 14.0571L5.7532 14.0085C5.82475 13.9387 5.91562 13.892 6.01404 13.8744C6.11246 13.8568 6.21389 13.8691 6.3052 13.9099C6.39613 13.9463 6.47411 14.0091 6.52913 14.0901C6.58415 14.1712 6.6137 14.2668 6.614 14.3648V14.4336C6.61386 14.6393 6.65428 14.8431 6.73295 15.0332C6.81162 15.2233 6.92699 15.396 7.07248 15.5415C7.21796 15.687 7.39069 15.8024 7.5808 15.8811C7.77091 15.9597 7.97466 16.0001 8.1804 16H9.3196C9.7342 15.9996 10.1317 15.8347 10.4249 15.5415C10.718 15.2484 10.8829 14.8509 10.8833 14.4363V14.3675C10.8859 14.2689 10.917 14.1732 10.9729 14.092C11.0288 14.0108 11.107 13.9475 11.198 13.9098C11.2891 13.8721 11.3892 13.8616 11.4861 13.8796C11.583 13.8976 11.6727 13.9433 11.7441 14.0112L11.7927 14.0597C12.0861 14.3525 12.4837 14.517 12.8983 14.517C13.3128 14.517 13.7104 14.3525 14.0039 14.0597L14.8097 13.2549C15.1023 12.9613 15.2666 12.5636 15.2666 12.1491C15.2666 11.7345 15.1023 11.3369 14.8097 11.0432L14.7612 10.9947C14.6913 10.9232 14.6445 10.8323 14.6269 10.7338C14.6093 10.6354 14.6217 10.534 14.6625 10.4427C14.699 10.3516 14.7619 10.2736 14.843 10.2185C14.9242 10.1634 15.0199 10.1337 15.118 10.1333H15.1863C15.6009 10.1329 15.9984 9.96802 16.2915 9.67486C16.5847 9.38169 16.7496 8.9842 16.75 8.5696V7.4304C16.7496 7.0158 16.5847 6.61831 16.2915 6.32514C15.9984 6.03198 15.6009 5.86709 15.1863 5.86667ZM15.6833 8.5696C15.6832 8.70139 15.6308 8.82774 15.5376 8.92092C15.4444 9.01411 15.3181 9.06653 15.1863 9.06667H15.118C14.8085 9.0693 14.5066 9.16298 14.25 9.33602C13.9934 9.50906 13.7934 9.75381 13.6749 10.0397C13.5565 10.3257 13.5248 10.6402 13.5839 10.944C13.6429 11.2478 13.7901 11.5275 14.0071 11.7483L14.0551 11.7968C14.1482 11.8902 14.2005 12.0167 14.2005 12.1485C14.2005 12.2804 14.1482 12.4069 14.0551 12.5003L13.2492 13.3051C13.156 13.3983 13.0296 13.4506 12.8977 13.4506C12.7659 13.4506 12.6395 13.3983 12.5463 13.3051L12.4983 13.2565C12.2774 13.0398 11.9977 12.8929 11.694 12.8339C11.3903 12.775 11.0759 12.8067 10.7901 12.9252C10.5042 13.0436 10.2595 13.2435 10.0864 13.4999C9.91337 13.7564 9.81955 14.0581 9.81667 14.3675V14.4363C9.81653 14.5681 9.76411 14.6944 9.67092 14.7876C9.57774 14.8808 9.45139 14.9332 9.3196 14.9333H8.1804C8.04861 14.9332 7.92226 14.8808 7.82908 14.7876C7.73589 14.6944 7.68348 14.5681 7.68333 14.4363V14.3675C7.68184 14.0575 7.58881 13.7548 7.41594 13.4974C7.24307 13.2401 6.99804 13.0395 6.71161 12.9209C6.42518 12.8023 6.1101 12.771 5.80591 12.8308C5.50172 12.8906 5.22196 13.0389 5.00173 13.2571L4.9532 13.3056C4.85984 13.3986 4.73347 13.4507 4.60173 13.4507C4.47 13.4507 4.34362 13.3986 4.25027 13.3056L3.44493 12.5008C3.35182 12.4074 3.29953 12.2809 3.29953 12.1491C3.29953 12.0172 3.35182 11.8907 3.44493 11.7973L3.49347 11.7488C3.71064 11.5281 3.85799 11.2482 3.91714 10.9443C3.97629 10.6403 3.94461 10.3257 3.82607 10.0396C3.70752 9.75354 3.50735 9.50872 3.25054 9.33569C2.99373 9.16266 2.69165 9.0691 2.382 9.06667H2.31373C2.18195 9.06653 2.0556 9.01411 1.96241 8.92092C1.86922 8.82774 1.81681 8.70139 1.81667 8.5696V7.4304C1.81681 7.29861 1.86922 7.17226 1.96241 7.07908C2.0556 6.98589 2.18195 6.93348 2.31373 6.93333H2.382C2.6915 6.9307 2.99337 6.83702 3.24999 6.66398C3.50661 6.49094 3.70662 6.2462 3.82508 5.96025C3.94354 5.67431 3.97521 5.35983 3.91615 5.056C3.85708 4.75218 3.70989 4.47247 3.49293 4.25173L3.44493 4.2032C3.35185 4.10991 3.29958 3.98351 3.29958 3.85173C3.29958 3.71995 3.35185 3.59355 3.44493 3.50027L4.25027 2.6944C4.34348 2.60119 4.46991 2.54883 4.60173 2.54883C4.73356 2.54883 4.85998 2.60119 4.9532 2.6944L5.0012 2.74293C5.22197 2.95979 5.50167 3.1069 5.80544 3.16595C6.10922 3.22499 6.42366 3.19335 6.70959 3.07498C6.99551 2.9566 7.2403 2.75673 7.41344 2.50024C7.58659 2.24375 7.68045 1.94198 7.68333 1.63253V1.56373C7.68348 1.43195 7.73589 1.3056 7.82908 1.21241C7.92226 1.11922 8.04861 1.06681 8.1804 1.06667H9.3196C9.45139 1.06681 9.57774 1.11922 9.67092 1.21241C9.76411 1.3056 9.81653 1.43195 9.81667 1.56373V1.63253C9.8194 1.94199 9.91315 2.24379 10.0862 2.50033C10.2593 2.75686 10.5041 2.95679 10.79 3.07518C11.0759 3.19358 11.3904 3.22521 11.6941 3.16612C11.9979 3.10704 12.2776 2.95986 12.4983 2.74293L12.5468 2.6944C12.64 2.60119 12.7664 2.54883 12.8983 2.54883C13.0301 2.54883 13.1565 2.60119 13.2497 2.6944L14.0551 3.50027C14.1481 3.59355 14.2004 3.71995 14.2004 3.85173C14.2004 3.98351 14.1481 4.10991 14.0551 4.2032L14.0065 4.25173C13.7895 4.4725 13.6423 4.75226 13.5833 5.05613C13.5243 5.36 13.556 5.67453 13.6745 5.9605C13.793 6.24646 13.9931 6.4912 14.2498 6.6642C14.5065 6.8372 14.8085 6.9308 15.118 6.93333H15.1863C15.3181 6.93348 15.4444 6.98589 15.5376 7.07908C15.6308 7.17226 15.6832 7.29861 15.6833 7.4304V8.5696Z" fill="#3A485A"/>
<path d="M8.74969 4.26682C8.01131 4.26682 7.2895 4.48577 6.67556 4.896C6.06162 5.30622 5.58311 5.88929 5.30054 6.57146C5.01798 7.25364 4.94404 8.00429 5.08809 8.72849C5.23215 9.45268 5.58771 10.1179 6.10983 10.64C6.63194 11.1621 7.29716 11.5177 8.02135 11.6617C8.74555 11.8058 9.49619 11.7319 10.1784 11.4493C10.8605 11.1667 11.4436 10.6882 11.8538 10.0743C12.2641 9.46034 12.483 8.73853 12.483 8.00015C12.4819 7.01035 12.0882 6.06142 11.3883 5.36153C10.6884 4.66164 9.73948 4.26794 8.74969 4.26682ZM8.74969 10.6668C8.22227 10.6668 7.7067 10.5104 7.26817 10.2174C6.82964 9.92439 6.48785 9.50791 6.28601 9.02064C6.08418 8.53337 6.03137 7.99719 6.13426 7.47991C6.23716 6.96263 6.49113 6.48747 6.86407 6.11453C7.23701 5.74159 7.71217 5.48761 8.22945 5.38472C8.74673 5.28183 9.28291 5.33464 9.77018 5.53647C10.2574 5.7383 10.6739 6.0801 10.9669 6.51863C11.26 6.95716 11.4164 7.47273 11.4164 8.00015C11.4155 8.70713 11.1343 9.38492 10.6344 9.88483C10.1345 10.3847 9.45667 10.666 8.74969 10.6668Z" fill="#3A485A"/>
</svg>
