<svg width="16" height="12" viewBox="0 0 16 12" fill="none" xmlns="http://www.w3.org/2000/svg">
<path d="M4.46613 6.77226C4.3375 6.77226 4.21864 6.71028 4.15432 6.60968L2.69919 4.33355C2.5606 4.11678 2.73383 3.84581 3.011 3.84581H12.989C13.2662 3.84581 13.4394 4.11678 13.3008 4.33355L11.8457 6.60968C11.7814 6.71028 11.6625 6.77226 11.5339 6.77226H4.46613Z" fill="#0047D1"/>
<path d="M5.71336 7.7729C5.43619 7.7729 5.26296 8.04387 5.40154 8.26065L7.68817 11.8374C7.82675 12.0542 8.17321 12.0542 8.3118 11.8374L10.5984 8.26065C10.737 8.04387 10.5638 7.7729 10.2866 7.7729H5.71336Z" fill="#0047D1"/>
<path d="M14.548 2.68258C14.4837 2.78319 14.3649 2.84516 14.2362 2.84516H1.76373C1.6351 2.84516 1.51623 2.78319 1.45192 2.68258L0.048774 0.487741C-0.089808 0.270966 0.083421 0 0.360587 0H15.6394C15.9166 0 16.0898 0.270969 15.9512 0.487743L14.548 2.68258Z" fill="#0047D1"/>
</svg>
