<svg width="32" height="32" viewBox="0 0 32 32" fill="none" xmlns="http://www.w3.org/2000/svg">
<path d="M31.9992 4.99987C31.9992 3.67382 31.4724 2.40209 30.5347 1.46443C29.5971 0.52677 28.3253 0 26.9993 0H8.99976C7.67372 0 6.40198 0.52677 5.46432 1.46443C4.52667 2.40209 3.99989 3.67382 3.99989 4.99987V12.5117C4.63588 12.2877 5.30586 12.1317 5.99984 12.0537V7.99979H29.9992V22.9994C29.9992 23.795 29.6832 24.5581 29.1206 25.1207C28.558 25.6833 27.7949 25.9993 26.9993 25.9993H16.2416L18.2415 27.9993H26.9993C28.3253 27.9993 29.5971 27.4725 30.5347 26.5348C31.4724 25.5972 31.9992 24.3254 31.9992 22.9994V4.99987ZM8.99976 1.99995H26.9993C27.7949 1.99995 28.558 2.31601 29.1206 2.8786C29.6832 3.4412 29.9992 4.20424 29.9992 4.99987V5.99984H5.99984V4.99987C5.99984 4.20424 6.3159 3.4412 6.8785 2.8786C7.44109 2.31601 8.20413 1.99995 8.99976 1.99995ZM11.1917 26.6053C9.77443 27.6651 8.00832 28.1487 6.24883 27.9589C4.48934 27.769 2.86707 26.9197 1.70851 25.582C0.549947 24.2442 -0.0589005 22.5173 0.00449707 20.7487C0.0678946 18.9801 0.798831 17.3012 2.0502 16.0498C3.30157 14.7985 4.98049 14.0675 6.74906 14.0041C8.51763 13.9407 10.2446 14.5496 11.5823 15.7081C12.9201 16.8667 13.7694 18.489 13.9592 20.2485C14.1491 22.008 13.6655 23.7741 12.6057 25.1913L17.7055 30.2912C17.8933 30.4787 17.9989 30.7331 17.9991 30.9985C17.9993 31.2638 17.894 31.5184 17.7065 31.7062C17.519 31.8939 17.2646 31.9995 16.9993 31.9997C16.7339 31.9999 16.4793 31.8947 16.2916 31.7072L11.1917 26.6073V26.6053ZM11.9997 20.9995C11.9997 19.6734 11.4729 18.4017 10.5353 17.464C9.5976 16.5264 8.32586 15.9996 6.99982 15.9996C5.67377 15.9996 4.40203 16.5264 3.46437 17.464C2.52672 18.4017 1.99995 19.6734 1.99995 20.9995C1.99995 22.3255 2.52672 23.5972 3.46437 24.5349C4.40203 25.4726 5.67377 25.9993 6.99982 25.9993C8.32586 25.9993 9.5976 25.4726 10.5353 24.5349C11.4729 23.5972 11.9997 22.3255 11.9997 20.9995Z" fill="#0047D1"/>
</svg>
