<svg width="13" height="16" viewBox="0 0 13 16" fill="none" xmlns="http://www.w3.org/2000/svg">
<path fill-rule="evenodd" clip-rule="evenodd" d="M1.38827e-07 15.4996V1.99995C1.38827e-07 1.46953 0.218518 0.960837 0.607482 0.585773C0.996447 0.210709 1.524 0 2.07407 0L10.3704 0C10.9204 0 11.448 0.210709 11.837 0.585773C12.2259 0.960837 12.4444 1.46953 12.4444 1.99995V15.4996C12.4445 15.5865 12.4211 15.6718 12.3766 15.7473C12.3321 15.8227 12.2679 15.8857 12.1905 15.93C12.113 15.9743 12.025 15.9984 11.9349 15.9999C11.8449 16.0014 11.756 15.9803 11.677 15.9386L6.22222 13.0687L0.767408 15.9386C0.688416 15.9803 0.599531 16.0014 0.509501 15.9999C0.419472 15.9984 0.331403 15.9743 0.253962 15.93C0.176521 15.8857 0.112378 15.8227 0.0678477 15.7473C0.0233173 15.6718 -6.57417e-05 15.5865 1.38827e-07 15.4996ZM6.38815 4.09991C6.37299 4.06992 6.34939 4.04464 6.32006 4.02696C6.29072 4.00928 6.25682 3.99991 6.22222 3.99991C6.18763 3.99991 6.15373 4.00928 6.12439 4.02696C6.09505 4.04464 6.07146 4.06992 6.0563 4.09991L5.39881 5.38488C5.38565 5.41087 5.36612 5.43338 5.34191 5.45045C5.31769 5.46753 5.28953 5.47866 5.25985 5.48287L3.78726 5.68887C3.75336 5.69383 3.72156 5.7078 3.69543 5.72921C3.6693 5.75061 3.64987 5.77862 3.63932 5.81008C3.62877 5.84153 3.62751 5.8752 3.63569 5.90731C3.64387 5.93942 3.66116 5.9687 3.68563 5.99186L4.74963 6.99284C4.79319 7.03384 4.81289 7.09284 4.80252 7.15084L4.55259 8.5648C4.54696 8.59745 4.55087 8.63097 4.5639 8.66159C4.57693 8.69222 4.59856 8.71873 4.62635 8.73815C4.65414 8.75758 4.687 8.76915 4.72124 8.77156C4.75547 8.77397 4.78972 8.76713 4.82015 8.7518L6.13719 8.08381C6.16359 8.0705 6.19294 8.06354 6.22274 8.06354C6.25254 8.06354 6.28189 8.0705 6.3083 8.08381L7.62533 8.7518C7.65573 8.76685 7.68985 8.77347 7.72392 8.77093C7.75798 8.76839 7.79065 8.75678 7.81827 8.73739C7.8459 8.71801 7.86741 8.69161 7.8804 8.66114C7.89339 8.63067 7.89735 8.59732 7.89185 8.5648L7.64089 7.14984C7.6356 7.12142 7.63755 7.09219 7.64658 7.06466C7.65562 7.03714 7.67146 7.01215 7.69274 6.99184L8.75881 5.99086C8.78328 5.9677 8.80057 5.93842 8.80875 5.90631C8.81693 5.8742 8.81568 5.84053 8.80513 5.80908C8.79457 5.77762 8.77514 5.74961 8.74901 5.72821C8.72288 5.7068 8.69108 5.69283 8.65718 5.68787L7.18459 5.48187C7.15492 5.47766 7.12675 5.46653 7.10254 5.44945C7.07832 5.43238 7.05879 5.40987 7.04563 5.38388L6.38815 4.09991Z" fill="#0047D1"/>
</svg>
