<svg width="10" height="14" viewBox="0 0 10 14" fill="none" xmlns="http://www.w3.org/2000/svg">
<path d="M0.75 0.0163574C0.551088 0.0163574 0.360322 0.108329 0.21967 0.272039C0.0790175 0.435749 0 0.657788 0 0.889309C0 1.12083 0.0790175 1.34287 0.21967 1.50658C0.360322 1.67029 0.551088 1.76226 0.75 1.76226H9.25C9.44891 1.76226 9.63968 1.67029 9.78033 1.50658C9.92098 1.34287 10 1.12083 10 0.889309C10 0.657788 9.92098 0.435749 9.78033 0.272039C9.63968 0.108329 9.44891 0.0163574 9.25 0.0163574H0.75ZM5.53 3.18226C5.38937 3.01879 5.19875 2.92696 5 2.92696C4.80125 2.92696 4.61063 3.01879 4.47 3.18226L1.22 6.96505C1.08752 7.13053 1.0154 7.34941 1.01883 7.57556C1.02225 7.80171 1.10097 8.01749 1.23838 8.17743C1.37579 8.33737 1.56118 8.42899 1.75548 8.43298C1.94978 8.43697 2.13783 8.35302 2.28 8.19882L4.25 5.90587V13.1106C4.25 13.3422 4.32902 13.5642 4.46967 13.7279C4.61032 13.8916 4.80109 13.9836 5 13.9836C5.19891 13.9836 5.38968 13.8916 5.53033 13.7279C5.67098 13.5642 5.75 13.3422 5.75 13.1106V5.90587L7.72 8.19882C7.78866 8.28459 7.87146 8.35338 7.96346 8.40109C8.05546 8.4488 8.15477 8.47446 8.25548 8.47653C8.35618 8.4786 8.45621 8.45703 8.5496 8.41313C8.64299 8.36922 8.72782 8.30388 8.79904 8.22098C8.87026 8.13809 8.9264 8.03935 8.96412 7.93065C9.00184 7.82195 9.02037 7.70552 9.01859 7.58831C9.01682 7.4711 8.99477 7.35551 8.95378 7.24843C8.91279 7.14134 8.85369 7.04497 8.78 6.96505L5.53 3.18226Z" fill="white"/>
</svg>
