<svg width="14" height="14" viewBox="0 0 14 14" fill="none" xmlns="http://www.w3.org/2000/svg">
<path d="M6.25001 7C6.25001 7.19891 6.32903 7.38968 6.46968 7.53033C6.61033 7.67098 6.80109 7.75 7 7.75C7.19891 7.75 7.38967 7.67098 7.53032 7.53033C7.67097 7.38968 7.74999 7.19891 7.74999 7C7.74999 6.80109 7.67097 6.61032 7.53032 6.46967C7.38967 6.32902 7.19891 6.25 7 6.25C6.80109 6.25 6.61033 6.32902 6.46968 6.46967C6.32903 6.61032 6.25001 6.80109 6.25001 7ZM9.37497 7C9.37497 7.19891 9.45399 7.38968 9.59464 7.53033C9.73529 7.67098 9.92605 7.75 10.125 7.75C10.3239 7.75 10.5146 7.67098 10.6553 7.53033C10.7959 7.38968 10.875 7.19891 10.875 7C10.875 6.80109 10.7959 6.61032 10.6553 6.46967C10.5146 6.32902 10.3239 6.25 10.125 6.25C9.92605 6.25 9.73529 6.32902 9.59464 6.46967C9.45399 6.61032 9.37497 6.80109 9.37497 7ZM3.12505 7C3.12505 7.19891 3.20407 7.38968 3.34472 7.53033C3.48537 7.67098 3.67613 7.75 3.87504 7.75C4.07395 7.75 4.26471 7.67098 4.40536 7.53033C4.54601 7.38968 4.62503 7.19891 4.62503 7C4.62503 6.80109 4.54601 6.61032 4.40536 6.46967C4.26471 6.32902 4.07395 6.25 3.87504 6.25C3.67613 6.25 3.48537 6.32902 3.34472 6.46967C3.20407 6.61032 3.12505 6.80109 3.12505 7ZM13.4562 4.2875C13.1031 3.44844 12.5968 2.69531 11.9515 2.04844C11.3107 1.40531 10.55 0.894096 9.71247 0.54375C8.8531 0.182813 7.94061 0 7 0H6.96875C6.02189 0.0046875 5.10471 0.192188 4.24222 0.560938C3.41185 0.914877 2.65828 1.427 2.0235 2.06875C1.38445 2.71406 0.88289 3.46406 0.536019 4.3C0.176649 5.16563 -0.0045988 6.08594 8.86437e-05 7.03281C0.00539053 8.11792 0.262104 9.18704 0.750079 10.1562V12.5312C0.750079 12.7219 0.825804 12.9047 0.960594 13.0395C1.09538 13.1743 1.2782 13.25 1.46882 13.25H3.84535C4.81455 13.738 5.88365 13.9947 6.96875 14H7.00156C7.93749 14 8.84529 13.8188 9.69997 13.4641C10.5333 13.1179 11.2911 12.6126 11.9312 11.9766C12.5765 11.3375 13.0843 10.5906 13.439 9.75781C13.8077 8.89531 13.9952 7.97813 13.9999 7.03125C14.0046 6.07969 13.8202 5.15625 13.4562 4.2875ZM11.0953 11.1313C9.99996 12.2156 8.54686 12.8125 7 12.8125H6.97344C6.03126 12.8078 5.09534 12.5734 4.26879 12.1328L4.13754 12.0625H1.93756V9.8625L1.86725 9.73125C1.42663 8.90469 1.19226 7.96875 1.18757 7.02656C1.18132 5.46875 1.77663 4.00625 2.8688 2.90469C3.95941 1.80312 5.41721 1.19375 6.975 1.1875H7.00156C7.7828 1.1875 8.54061 1.33906 9.25466 1.63906C9.95153 1.93125 10.5765 2.35156 11.114 2.88906C11.6499 3.425 12.0718 4.05156 12.364 4.74844C12.6671 5.47031 12.8187 6.23594 12.8156 7.02656C12.8062 8.58281 12.1952 10.0406 11.0953 11.1313Z" fill="#0047D1"/>
</svg>
