<svg width="16" height="16" viewBox="0 0 16 16" fill="none" xmlns="http://www.w3.org/2000/svg">
<path d="M7.75265 12.1482H9.37446V3.83644L14.5594 6.05832C14.7053 6.12089 14.8297 6.22494 14.9171 6.35756C15.0044 6.49019 15.0509 6.64554 15.0508 6.80435V14.3782L15.0509 16H0.454468V14.3782L0.454517 3.55262C0.454497 3.39573 0.499994 3.24219 0.58549 3.11064C0.670986 2.97908 0.792811 2.87516 0.936194 2.81146L7.18259 0.0349208C7.24439 0.00746672 7.31207 -0.00409562 7.37947 0.00128633C7.44688 0.00666828 7.51187 0.0288236 7.56853 0.0657355C7.62518 0.102647 7.67171 0.153144 7.70387 0.212628C7.73603 0.272112 7.7528 0.338694 7.75265 0.406315V12.1482Z" fill="#0047D1"/>
</svg>
