<svg width="16" height="14" viewBox="0 0 16 14" fill="none" xmlns="http://www.w3.org/2000/svg">
<path d="M7.9 9.10001C7.56184 9.10001 7.23754 9.23434 6.99844 9.47345C6.75933 9.71256 6.625 10.0369 6.625 10.375C6.625 10.7132 6.75933 11.0375 6.99844 11.2766C7.23754 11.5157 7.56184 11.65 7.9 11.65C8.23815 11.65 8.56245 11.5157 8.80155 11.2766C9.04066 11.0375 9.17499 10.7132 9.17499 10.375C9.17499 10.0369 9.04066 9.71256 8.80155 9.47345C8.56245 9.23434 8.23815 9.10001 7.9 9.10001Z" fill="#0047D1"/>
<path fill-rule="evenodd" clip-rule="evenodd" d="M5.65 0.0999756C5.01348 0.0999756 4.40303 0.352832 3.95294 0.802919C3.50286 1.25301 3.25 1.86345 3.25 2.49997V11.5C3.25 12.1365 3.50286 12.7469 3.95294 13.197C4.40303 13.6471 5.01348 13.9 5.65 13.9H10.15C10.7865 13.9 11.397 13.6471 11.847 13.197C12.2971 12.7469 12.55 12.1365 12.55 11.5V2.49997C12.55 1.86345 12.2971 1.25301 11.847 0.802919C11.397 0.352832 10.7865 0.0999756 10.15 0.0999756H5.65ZM4.96057 1.81054C5.14342 1.6277 5.39141 1.52497 5.65 1.52497H10.15C10.4086 1.52497 10.6566 1.6277 10.8394 1.81054C11.0223 1.99339 11.125 2.24139 11.125 2.49997V11.5C11.125 11.7585 11.0223 12.0065 10.8394 12.1894C10.6566 12.3722 10.4086 12.475 10.15 12.475H5.65C5.39141 12.475 5.14342 12.3722 4.96057 12.1894C4.77772 12.0065 4.675 11.7585 4.675 11.5V2.49997C4.675 2.24139 4.77772 1.99339 4.96057 1.81054Z" fill="#0047D1"/>
<path fill-rule="evenodd" clip-rule="evenodd" d="M0.471539 4.49067C0.166727 5.26941 9.98602e-06 6.11589 2.11821e-06 6.99995C-0.000670416 7.8573 0.158811 8.70723 0.47023 9.506C0.500886 9.59621 0.549329 9.67937 0.612705 9.75055C0.676963 9.82271 0.755228 9.88106 0.84274 9.92203C0.930252 9.963 1.02518 9.98574 1.12176 9.98887C1.21834 9.992 1.31454 9.97545 1.40453 9.94023C1.49451 9.90501 1.57639 9.85186 1.64518 9.784C1.71397 9.71615 1.76825 9.63501 1.8047 9.54552C1.84115 9.45603 1.85902 9.36006 1.85721 9.26345C1.85544 9.16821 1.83458 9.07431 1.7959 8.9873C1.55598 8.3721 1.425 7.70215 1.425 7.00001C1.42421 6.31904 1.55084 5.64376 1.79834 5.00935C1.83244 4.92217 1.84902 4.82912 1.84714 4.73553C1.84526 4.64192 1.82495 4.54959 1.78736 4.46383C1.74977 4.37807 1.69565 4.30056 1.62809 4.23573C1.56053 4.17091 1.48085 4.12003 1.39362 4.08601C1.21768 4.01756 1.02166 4.0217 0.848797 4.09758C0.675959 4.17344 0.540258 4.31487 0.471539 4.49067ZM1.7959 8.9873L1.79721 8.99067L1.6575 9.04526L1.79421 8.98353L1.7959 8.9873ZM0.611154 9.45479L0.468962 9.50223L0.47023 9.506L0.471526 9.50932L0.611154 9.45479Z" fill="#0047D1"/>
<path d="M14.6801 4.03725C14.5865 4.03537 14.4934 4.05196 14.4062 4.08608C14.2303 4.15505 14.0889 4.29113 14.0132 4.4643C13.9376 4.63742 13.9339 4.83347 14.0028 5.00936C14.2435 5.62548 14.375 6.2966 14.375 7.00001C14.375 7.70343 14.2435 8.37455 14.0028 8.99067L14.0002 8.99779C13.9424 9.17107 13.9533 9.35994 14.0308 9.52538C14.1082 9.69082 14.2463 9.82019 14.4164 9.88677C14.5865 9.95335 14.7757 9.95205 14.9449 9.88314C15.114 9.81423 15.2503 9.68298 15.3254 9.51649L15.3284 9.50944C15.6333 8.73066 15.8 7.88413 15.8 7.00001C15.8 6.1159 15.6333 5.26944 15.3296 4.49078C15.2956 4.40354 15.2447 4.32386 15.1799 4.2563C15.1151 4.18874 15.0376 4.13462 14.9518 4.09703C14.866 4.05945 14.7737 4.03913 14.6801 4.03725Z" fill="#0047D1"/>
</svg>
