<svg width="12" height="8" viewBox="0 0 12 8" fill="none" xmlns="http://www.w3.org/2000/svg">
<path d="M4.58655 7.75C4.49679 7.74973 4.40806 7.73189 4.32585 7.69761C4.24365 7.66333 4.16973 7.61334 4.1087 7.55073L0.927433 4.33124C0.808512 4.21068 0.744807 4.05011 0.750331 3.88486C0.755856 3.71961 0.830156 3.56322 0.956889 3.45009C1.08362 3.33696 1.2524 3.27635 1.42611 3.28161C1.59981 3.28686 1.7642 3.35755 1.88312 3.47811L4.58 6.21187L10.085 0.482809C10.1409 0.416627 10.2104 0.36201 10.2893 0.32231C10.3681 0.282611 10.4547 0.258668 10.5436 0.251952C10.6326 0.245237 10.722 0.25589 10.8065 0.283258C10.8909 0.310626 10.9686 0.35413 11.0348 0.4111C11.1009 0.468069 11.1541 0.537301 11.1911 0.614542C11.2281 0.691783 11.2481 0.775403 11.2499 0.860266C11.2517 0.945129 11.2352 1.02944 11.2015 1.10803C11.1678 1.18662 11.1175 1.25782 11.0538 1.31726L5.07094 7.5445C5.01048 7.60824 4.93682 7.6594 4.85459 7.69476C4.77236 7.73013 4.68333 7.74893 4.59309 7.75H4.58655Z" fill="#0047D1"/>
</svg>
