<svg width="27" height="6" viewBox="0 0 27 6" fill="none" xmlns="http://www.w3.org/2000/svg">
<path d="M2.49999 5.54344C3.8807 5.54344 4.99998 4.42416 4.99998 3.04345C4.99998 1.66274 3.8807 0.543457 2.49999 0.543457C1.11928 0.543457 0 1.66274 0 3.04345C0 4.42416 1.11928 5.54344 2.49999 5.54344Z" fill="#8E98A1"/>
<path d="M13.5 5.54344C14.8807 5.54344 16 4.42416 16 3.04345C16 1.66274 14.8807 0.543457 13.5 0.543457C12.1193 0.543457 11 1.66274 11 3.04345C11 4.42416 12.1193 5.54344 13.5 5.54344Z" fill="#8E98A1"/>
<path d="M24.5 5.54344C25.8807 5.54344 27 4.42416 27 3.04345C27 1.66274 25.8807 0.543457 24.5 0.543457C23.1193 0.543457 22 1.66274 22 3.04345C22 4.42416 23.1193 5.54344 24.5 5.54344Z" fill="#8E98A1"/>
</svg>
