<svg width="26" height="25" viewBox="0 0 26 25" fill="none" xmlns="http://www.w3.org/2000/svg">
<path fill-rule="evenodd" clip-rule="evenodd" d="M25.5833 9.05511C26.3715 9.63867 25.9664 10.9047 24.996 10.9047H23.049V22.8315H25.3101C25.4482 22.8315 25.5613 22.9463 25.5613 23.0866V24.7449C25.5613 24.8852 25.4482 25 25.3101 25H0.689763C0.551579 25 0.438542 24.8852 0.438542 24.7449V23.0866C0.438542 22.9463 0.551579 22.8315 0.689763 22.8315H2.95081V10.9047H1.00696C0.0334517 10.9047 -0.3717 9.6355 0.416569 9.05511L12.4096 0.196106C12.5808 0.0687256 12.7876 0 12.9999 0C13.2122 0 13.4191 0.0687256 13.5903 0.196106L25.5833 9.05511ZM21.5134 8.73303L12.9999 2.44434L4.48645 8.73303H21.5134ZM8.88605 10.9047H5.21186V22.8315H8.88605H11.1471H14.8214H17.0824H20.788V10.9047H17.0824H14.8214H11.1471H8.88605Z" fill="#0047D1"/>
<path d="M13.8383 12.5H12.297V13.5424C11.8175 13.5495 11.3625 13.7497 11.0281 14.0956C10.6881 14.4473 10.5 14.9208 10.5 15.4111C10.5 15.9014 10.6881 16.3749 11.0281 16.7266C11.3686 17.0788 11.8342 17.28 12.3233 17.28H13.6764C13.7456 17.2802 13.8156 17.3085 13.8699 17.3647C13.9247 17.4214 13.9585 17.5018 13.9586 17.5891V17.6509C13.9585 17.7382 13.9247 17.8186 13.8699 17.8753C13.8156 17.9315 13.7454 17.9598 13.6761 17.96L10.886 17.96V19.52H12.297V20.5H13.8383V19.5125C14.2674 19.4731 14.6688 19.2793 14.9715 18.9661C15.3112 18.6147 15.4995 18.1411 15.5 17.6511L15.5 17.5883C15.4995 17.0984 15.3112 16.6253 14.9715 16.2739C14.6312 15.9218 14.1655 15.7206 13.6767 15.72H12.3233C12.2541 15.72 12.1842 15.6917 12.1299 15.6356C12.075 15.5788 12.0414 15.4984 12.0414 15.4111C12.0414 15.3238 12.075 15.2434 12.1299 15.1867C12.1842 15.1305 12.2541 15.1022 12.3233 15.1022H14.9887V13.5422H13.8383V12.5Z" fill="#0047D1"/>
</svg>
