<svg width="18" height="23" viewBox="0 0 18 23" fill="none" xmlns="http://www.w3.org/2000/svg">
<path d="M2.28558 7.84825e-05C1.02563 7.84825e-05 0 1.02645 0 2.28635V19.8443C0 21.1042 1.02563 22.1305 2.28558 22.1305H15.7116C16.9715 22.1305 17.9972 21.1042 17.9972 19.8443V5.40677C17.9972 5.40677 18.0331 4.98401 17.8496 4.57263C17.6776 4.18701 17.3972 3.91862 17.3972 3.91862C17.3965 3.91767 17.3958 3.91672 17.3951 3.91578L14.064 0.648479C14.0622 0.646616 14.0604 0.64477 14.0585 0.642945C14.0585 0.642945 13.7741 0.372139 13.3525 0.191232C12.8561 -0.0217768 12.3445 0.000709049 12.3445 0.000709049L12.3521 0L2.28558 7.84825e-05Z" fill="#FF2116"/>
<path d="M2.28506 0.751221H12.3516C12.3541 0.751246 12.3567 0.751246 12.3592 0.751221C12.3592 0.751221 12.7618 0.755122 13.0562 0.881469C13.3396 1.00307 13.5405 1.18715 13.5419 1.18839C13.5419 1.18839 13.5432 1.18981 13.5432 1.18981L16.866 4.44948C16.866 4.44948 17.0662 4.66083 17.1632 4.87833C17.2415 5.05389 17.2463 5.37508 17.2463 5.37508C17.246 5.38038 17.2457 5.38569 17.2456 5.391V19.8444C17.2456 20.7014 16.568 21.3797 15.711 21.3797H2.28506C1.42809 21.3797 0.750488 20.7014 0.750488 19.8444V2.28652C0.750488 1.4295 1.42809 0.751248 2.28506 0.751248V0.751221Z" fill="#F5F5F5"/>
<path d="M4.49347 13.1765C3.97675 12.6598 4.5358 11.9497 6.05299 11.1958L7.00762 10.7213L7.37953 9.90763C7.58407 9.46008 7.88936 8.72983 8.05794 8.28486L8.36445 7.4758L8.15323 6.87706C7.89352 6.14085 7.8009 5.03452 7.96569 4.6367C8.18888 4.09785 8.91998 4.15314 9.20942 4.73076C9.43547 5.18187 9.41236 5.99884 9.14441 7.02915L8.92473 7.87382L9.11823 8.2023C9.22465 8.38297 9.53552 8.81195 9.80904 9.15559L10.3231 9.79505L10.9628 9.71157C12.995 9.44639 13.691 9.89709 13.691 10.5433C13.691 11.3589 12.0953 11.4262 10.7554 10.485C10.4539 10.2733 10.2468 10.0629 10.2468 10.0629C10.2468 10.0629 9.40735 10.2338 8.99404 10.3452C8.56742 10.4602 8.35458 10.5322 7.72964 10.7432C7.72964 10.7432 7.51038 11.0616 7.3675 11.2931C6.83592 12.1543 6.21525 12.868 5.772 13.1278C5.27571 13.4186 4.75543 13.4385 4.49347 13.1765ZM5.30438 12.8868C5.59483 12.7073 6.18272 12.012 6.58967 11.3667L6.75443 11.1054L6.00421 11.4826C4.8455 12.0652 4.31542 12.6142 4.59106 12.9464C4.74591 13.133 4.93114 13.1175 5.30438 12.8868ZM12.8308 10.7742C13.1149 10.5752 13.0737 10.1742 12.7525 10.0125C12.5026 9.8867 12.3011 9.86086 11.6518 9.87044C11.2527 9.89765 10.6111 9.97806 10.5024 10.0025C10.5024 10.0025 10.8548 10.2461 11.0113 10.3357C11.2197 10.4547 11.7259 10.6755 12.0955 10.7887C12.4601 10.9003 12.671 10.8885 12.8308 10.7742V10.7742ZM9.80455 9.51637C9.63261 9.33563 9.34026 8.95841 9.15487 8.6781C8.91241 8.36012 8.79083 8.13578 8.79083 8.13578C8.79083 8.13578 8.61361 8.70579 8.46822 9.0488L8.01462 10.17L7.8831 10.4243C7.8831 10.4243 8.58227 10.1951 8.938 10.1021C9.31477 10.0037 10.0794 9.85336 10.0794 9.85336L9.80455 9.51637ZM8.82929 5.60533C8.87314 5.23731 8.89175 4.86983 8.77351 4.68452C8.44554 4.32598 8.04968 4.62498 8.11673 5.47738C8.1393 5.76413 8.21053 6.25434 8.30577 6.55647L8.47894 7.1058L8.60081 6.69206C8.66784 6.46451 8.77066 5.97547 8.82929 5.60533Z" fill="#FF2116"/>
<path d="M5.37207 15.5696H6.21098C6.47903 15.5696 6.69662 15.5952 6.86374 15.6465C7.03086 15.6962 7.1715 15.8078 7.28567 15.9816C7.39984 16.1537 7.45693 16.3613 7.45693 16.6046C7.45693 16.8279 7.4106 17.0199 7.31794 17.1804C7.22528 17.3409 7.10035 17.4567 6.94316 17.5279C6.78762 17.599 6.5477 17.6346 6.22339 17.6346H5.933V18.9575H5.37207V15.5696ZM5.933 16.0039V17.1853H6.21098C6.45917 17.1853 6.63043 17.139 6.72474 17.0464C6.82071 16.9537 6.8687 16.8031 6.8687 16.5946C6.8687 16.4391 6.83726 16.3133 6.77438 16.2174C6.71151 16.1197 6.64201 16.0602 6.5659 16.0387C6.49144 16.0155 6.37313 16.0039 6.21098 16.0039L5.933 16.0039Z" fill="#2C2C2C"/>
<path d="M7.88672 15.5691H8.64868C9.01767 15.5691 9.3122 15.6344 9.53227 15.7652C9.75399 15.8959 9.92111 16.0903 10.0336 16.3484C10.1478 16.6066 10.2049 16.8928 10.2049 17.2072C10.2049 17.5381 10.1536 17.8335 10.051 18.0933C9.95007 18.3514 9.79453 18.5599 9.58439 18.7187C9.3759 18.8776 9.07807 18.957 8.69088 18.957H7.88672V15.5691ZM8.44765 16.0183V18.5077H8.68095C9.00692 18.5077 9.24353 18.3952 9.39079 18.1702C9.53806 17.9435 9.61169 17.6415 9.61169 17.2643C9.61169 16.4336 9.30144 16.0183 8.68095 16.0183H8.44765Z" fill="#2C2C2C"/>
<path d="M10.7427 15.5691H12.624V16.0183H11.3036V17.031H12.3609V17.4802H11.3036V18.957H10.7427V15.5691Z" fill="#2C2C2C"/>
</svg>
