<svg width="16" height="16" viewBox="0 0 16 16" fill="none" xmlns="http://www.w3.org/2000/svg">
<path d="M9.37504 0C5.71941 0 2.7428 2.97295 2.7428 6.62857C2.7428 10.2842 5.71575 13.2571 9.37137 13.2571C13.027 13.2571 15.9999 10.2842 15.9999 6.62857C15.9999 2.97295 13.027 0 9.37504 0ZM7.60595 9.62721C7.60595 10.0126 7.29398 10.3209 6.91226 10.3209C6.52688 10.3209 6.21858 10.0089 6.21858 9.62721V3.50147C6.21858 3.11609 6.53055 2.80778 6.91226 2.80778C7.29765 2.80778 7.60595 3.11976 7.60595 3.50147V9.62721ZM10.0394 9.62721C10.0394 10.0126 9.72739 10.3209 9.34568 10.3209C8.96029 10.3209 8.65199 10.0089 8.65199 9.62721V5.00997C8.65199 4.62458 8.96397 4.31628 9.34568 4.31628C9.73106 4.31628 10.0394 4.62825 10.0394 5.00997V9.62721ZM12.3737 9.58684C12.3737 9.97222 12.0617 10.2805 11.68 10.2805C11.2946 10.2805 10.9863 9.96855 10.9863 9.58684V3.4611C10.9863 3.07572 11.2983 2.76741 11.68 2.76741C12.0654 2.76741 12.3737 3.07939 12.3737 3.4611V9.58684Z" fill="#0047D1"/>
<path d="M4.97501 13.5309L3.20397 15.2989L3.17362 15.3292L3.02186 15.4808C2.67661 15.8257 2.22134 16 1.76987 16C1.31839 16 0.863118 15.8257 0.517871 15.4808C-0.172624 14.791 -0.172624 13.6692 0.517871 12.9794L2.47481 11.0257C2.60001 10.9006 2.81247 10.9233 2.90732 11.0712C3.43088 11.8784 4.12138 12.572 4.92948 13.0988C5.07745 13.1973 5.10021 13.4058 4.97501 13.5309Z" fill="#0047D1"/>
</svg>
