<svg width="16" height="16" viewBox="0 0 16 16" fill="none" xmlns="http://www.w3.org/2000/svg">
<path d="M11.3529 3.32406C10.7415 3.03651 10.0953 3.5274 10.0953 4.20303C10.0953 4.62224 10.3556 4.99101 10.7217 5.19529C11.0747 5.39225 11.4044 5.62908 11.7045 5.90358C12.6934 6.80835 13.2382 8.01215 13.2382 9.29263C13.2382 10.5731 12.6934 11.7759 11.7045 12.6817C10.7155 13.5864 9.3997 14.0848 8.00008 14.0848C6.60047 14.0848 5.28571 13.5864 4.29571 12.6817C3.30676 11.7769 2.762 10.5731 2.762 9.29263C2.762 8.01215 3.30676 6.8093 4.29571 5.90358C4.59574 5.62908 4.92548 5.39225 5.27844 5.19529C5.64452 4.99101 5.90485 4.62224 5.90485 4.20303C5.90485 3.5274 5.25868 3.03651 4.6473 3.32406C3.50011 3.86361 2.52118 4.67422 1.81859 5.68129C0.870877 7.03971 0.489286 8.66483 0.74359 10.2595C0.997895 11.8541 1.8711 13.3118 3.20354 14.3659C4.53597 15.4199 6.2386 16 8.00008 16C9.76156 16 11.4642 15.4199 12.7966 14.3659C14.1291 13.3118 15.0023 11.8541 15.2566 10.2595C15.5109 8.66483 15.1293 7.03971 14.1816 5.68129C13.479 4.67422 12.5001 3.86362 11.3529 3.32406ZM6.95246 1.71427C6.95246 1.13569 7.4215 0.666656 8.00008 0.666656C8.57866 0.666656 9.0477 1.13569 9.0477 1.71427V7.28657C9.0477 7.86515 8.57866 8.33418 8.00008 8.33418C7.4215 8.33418 6.95246 7.86515 6.95246 7.28657V1.71427Z" fill="#3A485A"/>
</svg>
