<svg width="10" height="8" viewBox="0 0 10 8" fill="none" xmlns="http://www.w3.org/2000/svg">
<path d="M2.72675 0.0641889C2.70498 0.0438432 2.6791 0.0277 2.65061 0.016685C2.62213 0.00567007 2.59158 0 2.56073 0C2.52989 0 2.49934 0.00567007 2.47085 0.016685C2.44237 0.0277 2.41649 0.0438432 2.39472 0.0641889L1.15097 1.21558L0.707607 0.813295C0.685833 0.792949 0.65996 0.776806 0.631471 0.765791C0.602982 0.754776 0.572439 0.749106 0.541592 0.749106C0.510745 0.749106 0.480201 0.754776 0.451712 0.765791C0.423223 0.776806 0.39735 0.792949 0.375576 0.813295L0.0689349 1.09919C0.0470849 1.11946 0.0297481 1.14356 0.0179187 1.17008C0.00608929 1.19661 0 1.22505 0 1.25377C0 1.2825 0.00608929 1.31094 0.0179187 1.33747C0.0297481 1.36399 0.0470849 1.38808 0.0689349 1.40836L0.998428 2.2704C1.04482 2.31147 1.10639 2.33437 1.1704 2.33437C1.23441 2.33437 1.29598 2.31147 1.34237 2.2704L1.64687 1.98633L3.05702 0.67344C3.10096 0.632495 3.12579 0.57707 3.12612 0.51919C3.12645 0.46131 3.10225 0.405643 3.05878 0.364268L2.72675 0.0641889ZM2.72675 2.95931C2.70498 2.93897 2.6791 2.92282 2.65061 2.91181C2.62213 2.90079 2.59158 2.89512 2.56073 2.89512C2.52989 2.89512 2.49934 2.90079 2.47085 2.91181C2.44237 2.92282 2.41649 2.93897 2.39472 2.95931L1.15097 4.11816L0.707607 3.71624C0.685833 3.69589 0.65996 3.67975 0.631471 3.66873C0.602982 3.65772 0.572439 3.65205 0.541592 3.65205C0.510745 3.65205 0.480201 3.65772 0.451712 3.66873C0.423223 3.67975 0.39735 3.69589 0.375576 3.71624L0.0689349 4.00159C0.0470849 4.02186 0.0297481 4.04595 0.0179187 4.07248C0.00608929 4.09901 0 4.12745 0 4.15617C0 4.1849 0.00608929 4.21334 0.0179187 4.23986C0.0297481 4.26639 0.0470849 4.29048 0.0689349 4.31076L0.996084 5.17462C1.04245 5.21567 1.10398 5.23857 1.16796 5.23857C1.23194 5.23857 1.29347 5.21567 1.33983 5.17462L1.64648 4.88927L3.05663 3.57584C3.1004 3.53518 3.12515 3.48007 3.12547 3.4225C3.1258 3.36493 3.10169 3.30957 3.05839 3.26848L2.72675 2.95931ZM1.24999 6.11123C0.732607 6.11123 0.300966 6.50224 0.300966 6.98419C0.300966 7.46613 0.732998 7.85714 1.24999 7.85714C1.49863 7.85714 1.73709 7.76517 1.9129 7.60146C2.08872 7.43775 2.18749 7.21571 2.18749 6.98419C2.18749 6.75266 2.08872 6.53062 1.9129 6.36691C1.73709 6.2032 1.49863 6.11123 1.24999 6.11123ZM9.6875 6.40222H4.06249C3.97961 6.40222 3.90013 6.43287 3.84152 6.48744C3.78292 6.54201 3.74999 6.61603 3.74999 6.6932V7.27517C3.74999 7.35235 3.78292 7.42636 3.84152 7.48093C3.90013 7.5355 3.97961 7.56616 4.06249 7.56616H9.6875C9.77038 7.56616 9.84987 7.5355 9.90847 7.48093C9.96708 7.42636 10 7.35235 10 7.27517V6.6932C10 6.61603 9.96708 6.54201 9.90847 6.48744C9.84987 6.43287 9.77038 6.40222 9.6875 6.40222ZM9.6875 0.582507H4.06249C3.97961 0.582507 3.90013 0.613164 3.84152 0.667735C3.78292 0.722305 3.74999 0.796318 3.74999 0.873492V1.45546C3.74999 1.53264 3.78292 1.60665 3.84152 1.66122C3.90013 1.71579 3.97961 1.74645 4.06249 1.74645H9.6875C9.77038 1.74645 9.84987 1.71579 9.90847 1.66122C9.96708 1.60665 10 1.53264 10 1.45546V0.873492C10 0.796318 9.96708 0.722305 9.90847 0.667735C9.84987 0.613164 9.77038 0.582507 9.6875 0.582507ZM9.6875 3.49236H4.06249C3.97961 3.49236 3.90013 3.52302 3.84152 3.57759C3.78292 3.63216 3.74999 3.70617 3.74999 3.78335V4.36532C3.74999 4.44249 3.78292 4.51651 3.84152 4.57108C3.90013 4.62565 3.97961 4.6563 4.06249 4.6563H9.6875C9.77038 4.6563 9.84987 4.62565 9.90847 4.57108C9.96708 4.51651 10 4.44249 10 4.36532V3.78335C10 3.70617 9.96708 3.63216 9.90847 3.57759C9.84987 3.52302 9.77038 3.49236 9.6875 3.49236Z" fill="#8E98A1"/>
</svg>
