<svg width="23" height="26" viewBox="0 0 23 26" fill="none" xmlns="http://www.w3.org/2000/svg">
<path d="M11.25 25.3801C12.0241 25.3811 12.7793 25.1409 13.4106 24.6928C14.0419 24.2448 14.5179 23.6112 14.7725 22.8801H7.7275C7.98208 23.6112 8.4581 24.2448 9.08939 24.6928C9.72068 25.1409 10.4759 25.3811 11.25 25.3801ZM20 16.1126V10.3801C20 6.35888 17.2687 2.97138 13.5687 1.95263C13.2025 1.03013 12.3075 0.380127 11.25 0.380127C10.1925 0.380127 9.2975 1.03013 8.93125 1.95263C5.23125 2.97263 2.5 6.35888 2.5 10.3801V16.1126L0.366251 18.2464C0.249948 18.3623 0.157713 18.5 0.0948567 18.6517C0.0320002 18.8033 -0.000236811 18.9659 1.30959e-06 19.1301V20.3801C1.30959e-06 20.7116 0.131697 21.0296 0.366118 21.264C0.600538 21.4984 0.918481 21.6301 1.25 21.6301H21.25C21.5815 21.6301 21.8995 21.4984 22.1339 21.264C22.3683 21.0296 22.5 20.7116 22.5 20.3801V19.1301C22.5002 18.9659 22.468 18.8033 22.4051 18.6517C22.3423 18.5 22.2501 18.3623 22.1338 18.2464L20 16.1126Z" fill="#8E98A1"/>
</svg>
