<svg width="26" height="26" viewBox="0 0 26 26" fill="none" xmlns="http://www.w3.org/2000/svg">
<path fill-rule="evenodd" clip-rule="evenodd" d="M2.5 2C2.22386 2 2 2.22386 2 2.5V5.5C2 5.77614 2.22386 6 2.5 6H23.5C23.7761 6 24 5.77614 24 5.5V2.5C24 2.22386 23.7761 2 23.5 2H2.5ZM0 2.5C0 1.11929 1.11929 0 2.5 0H23.5C24.8807 0 26 1.11929 26 2.5V5.5C26 6.88071 24.8807 8 23.5 8H2.5C1.11929 8 0 6.88071 0 5.5V2.5Z" fill="#0047D1"/>
<path fill-rule="evenodd" clip-rule="evenodd" d="M2.5 14C2.22386 14 2 14.2239 2 14.5V23.5C2 23.7761 2.22386 24 2.5 24H8.5C8.77614 24 9 23.7761 9 23.5V14.5C9 14.2239 8.77614 14 8.5 14H2.5ZM0 14.5C0 13.1193 1.11929 12 2.5 12H8.5C9.88071 12 11 13.1193 11 14.5V23.5C11 24.8807 9.88071 26 8.5 26H2.5C1.11929 26 0 24.8807 0 23.5V14.5Z" fill="#0047D1"/>
<path fill-rule="evenodd" clip-rule="evenodd" d="M15 13C15 12.4477 15.4477 12 16 12H25C25.5523 12 26 12.4477 26 13C26 13.5523 25.5523 14 25 14H16C15.4477 14 15 13.5523 15 13Z" fill="#0047D1"/>
<path fill-rule="evenodd" clip-rule="evenodd" d="M15 19C15 18.4477 15.4477 18 16 18H25C25.5523 18 26 18.4477 26 19C26 19.5523 25.5523 20 25 20H16C15.4477 20 15 19.5523 15 19Z" fill="#0047D1"/>
<path fill-rule="evenodd" clip-rule="evenodd" d="M15 25C15 24.4477 15.4477 24 16 24H25C25.5523 24 26 24.4477 26 25C26 25.5523 25.5523 26 25 26H16C15.4477 26 15 25.5523 15 25Z" fill="#0047D1"/>
</svg>
