<svg width="12" height="16" viewBox="0 0 12 16" fill="none" xmlns="http://www.w3.org/2000/svg">
<path d="M2.28007 0.643657L3.17626 0.374108C3.6672 0.226067 4.19523 0.261705 4.66183 0.474371C5.12842 0.687037 5.5017 1.0622 5.71201 1.52986L6.4047 3.07036C6.58552 3.47261 6.63588 3.92138 6.5487 4.3537C6.46152 4.78602 6.24118 5.1802 5.91859 5.48093L4.77128 6.55068C4.73775 6.58193 4.7165 6.62415 4.71138 6.66971C4.67759 6.97458 4.88417 7.5682 5.3603 8.39374C5.70664 8.99351 6.02073 9.41511 6.2872 9.65087C6.47305 9.81597 6.57518 9.8513 6.61896 9.83901L8.16252 9.36673C8.58405 9.23779 9.03537 9.24399 9.4532 9.38446C9.87103 9.52493 10.2344 9.79263 10.4925 10.15L11.4762 11.5139C11.7753 11.9287 11.9138 12.4379 11.866 12.947C11.8181 13.4561 11.5871 13.9306 11.2159 14.2823L10.5355 14.9274C10.1744 15.2694 9.73083 15.512 9.2481 15.6316C8.76536 15.7513 8.25987 15.7439 7.78085 15.6101C5.66594 15.0196 3.76988 13.2349 2.07119 10.2929C0.370199 7.34704 -0.226493 4.80975 0.323355 2.68024C0.447128 2.2013 0.692187 1.76232 1.03491 1.40561C1.37763 1.0489 1.80647 0.786481 2.28007 0.643657ZM2.61259 1.74719C2.32851 1.83278 2.07125 1.99008 1.8656 2.20394C1.65995 2.4178 1.51283 2.68101 1.43841 2.96822C0.976107 4.75907 1.50522 7.00837 3.06875 9.71691C4.62998 12.4216 6.31101 14.0036 8.0911 14.5012C8.37842 14.5812 8.68156 14.5855 8.97102 14.5136C9.26048 14.4418 9.52642 14.2962 9.74295 14.0911L10.4241 13.446C10.5929 13.2861 10.6979 13.0704 10.7197 12.8389C10.7415 12.6074 10.6784 12.3759 10.5424 12.1874L9.55941 10.8243C9.44212 10.6616 9.27683 10.5398 9.08676 10.4759C8.89669 10.412 8.69138 10.4092 8.49965 10.468L6.95224 10.9418C6.05375 11.209 5.23819 10.4864 4.36274 8.9697C3.77296 7.94834 3.49803 7.15735 3.56638 6.54223C3.60247 6.22277 3.75069 5.92788 3.98568 5.70824L5.13298 4.6385C5.27968 4.50182 5.37989 4.32263 5.41956 4.12609C5.45922 3.92955 5.43635 3.72552 5.35415 3.54264L4.66147 2.00215C4.56587 1.78974 4.39631 1.61934 4.18438 1.5227C3.97245 1.42606 3.7326 1.40977 3.50955 1.47688L2.61259 1.74719Z" fill="#0047D1"/>
</svg>
