<svg width="26" height="24" viewBox="0 0 26 24" fill="none" xmlns="http://www.w3.org/2000/svg">
<path d="M25.7292 21.5455H2.4375V0.272727C2.4375 0.122727 2.31563 0 2.16667 0H0.270833C0.121875 0 0 0.122727 0 0.272727V23.7273C0 23.8773 0.121875 24 0.270833 24H25.7292C25.8781 24 26 23.8773 26 23.7273V21.8182C26 21.6682 25.8781 21.5455 25.7292 21.5455ZM6.01927 16.2852C6.12422 16.3909 6.29349 16.3909 6.40182 16.2852L11.0839 11.5943L15.4036 15.9716C15.5086 16.0773 15.6813 16.0773 15.7862 15.9716L25.1096 6.58636C25.2146 6.48068 25.2146 6.30682 25.1096 6.20114L23.769 4.85114C23.7181 4.80038 23.6494 4.77191 23.5777 4.77191C23.5061 4.77191 23.4374 4.80038 23.3865 4.85114L15.6 12.6886L11.287 8.31818C11.2361 8.26743 11.1673 8.23895 11.0957 8.23895C11.0241 8.23895 10.9553 8.26743 10.9044 8.31818L4.68203 14.5466C4.63163 14.5979 4.60335 14.6671 4.60335 14.7392C4.60335 14.8113 4.63163 14.8806 4.68203 14.9318L6.01927 16.2852Z" fill="#0047D1"/>
</svg>
