<svg width="10" height="11" viewBox="0 0 10 11" fill="none" xmlns="http://www.w3.org/2000/svg">
<path d="M3.83413 6.54029L3.67826 7.46605C3.65702 7.59261 3.70895 7.72016 3.81256 7.79569C3.91634 7.87106 4.05414 7.88115 4.16752 7.82174L4.99984 7.38726L5.83216 7.82182C5.8814 7.84737 5.93537 7.86023 5.98876 7.86023C6.05868 7.86023 6.12843 7.83834 6.18728 7.79577C6.29097 7.72024 6.34306 7.5927 6.32166 7.46613L6.16595 6.54037L6.83614 5.88296C6.92779 5.79318 6.96043 5.65921 6.92112 5.53728C6.88164 5.41544 6.77599 5.32623 6.64918 5.30751L5.72049 5.16979L5.30221 4.32909C5.24548 4.21432 5.12795 4.14164 4.99976 4.14164C4.87181 4.14164 4.75436 4.21432 4.69714 4.32909L4.27927 5.16979L3.35058 5.30743C3.22352 5.32615 3.11836 5.41536 3.07881 5.5372C3.03925 5.65913 3.07181 5.79326 3.16362 5.88288L3.83413 6.54029Z" fill="#8E98A1"/>
<path d="M8.99114 1.08H7.92774V0.490148C7.92774 0.219435 7.7083 0 7.43751 0H7.35978C7.08907 0 6.86971 0.219435 6.86971 0.490148V1.08H3.11775V0.490148C3.11775 0.219435 2.89832 0 2.62769 0H2.54987C2.27916 0 2.05981 0.219435 2.05981 0.490148V1.08H1.00878C0.452625 1.08 0 1.53246 0 2.08878V9.15018C0 9.70618 0.452625 10.159 1.00878 10.159H8.99122C9.54729 10.159 10 9.70626 10 9.15018V2.08878C9.99992 1.53246 9.54721 1.08 8.99114 1.08ZM8.85952 9.01857H1.14039V3.5217H8.85952V9.01857Z" fill="#8E98A1"/>
</svg>
