<svg width="15" height="14" viewBox="0 0 15 14" fill="none" xmlns="http://www.w3.org/2000/svg">
<path d="M14.375 2.50714H11.875V1.11429C11.875 0.499688 11.3145 0 10.625 0H4.375C3.68555 0 3.125 0.499688 3.125 1.11429V2.50714H0.625C0.279297 2.50714 0 2.75612 0 3.06429V3.62143C0 3.69804 0.0703125 3.76071 0.15625 3.76071H1.33594L1.81836 12.8665C1.84961 13.4602 2.40039 13.9286 3.06641 13.9286H11.9336C12.6016 13.9286 13.1504 13.462 13.1816 12.8665L13.6641 3.76071H14.8438C14.9297 3.76071 15 3.69804 15 3.62143V3.06429C15 2.75612 14.7207 2.50714 14.375 2.50714ZM10.4688 2.50714H4.53125V1.25357H10.4688V2.50714Z" fill="#8E98A1"/>
</svg>
