<svg width="10" height="8" viewBox="0 0 10 8" fill="none" xmlns="http://www.w3.org/2000/svg">
<path d="M0.959801 2.42186C1.0863 2.51113 1.46761 2.77624 2.10376 3.21707C2.73993 3.6579 3.22727 3.99733 3.56582 4.23537C3.60302 4.26146 3.68204 4.31818 3.80293 4.40561C3.92383 4.4931 4.0243 4.56379 4.10424 4.61772C4.18424 4.67163 4.28095 4.7321 4.39447 4.79904C4.50795 4.86593 4.61492 4.91624 4.71537 4.94954C4.81583 4.98312 4.90883 4.99976 4.99438 4.99976H4.99999H5.00562C5.09117 4.99976 5.18421 4.9831 5.28467 4.94954C5.38508 4.91624 5.49215 4.86587 5.60553 4.79904C5.71897 4.73202 5.81568 4.67161 5.89568 4.61772C5.97568 4.56379 6.07607 4.4931 6.19701 4.40561C6.31788 4.31811 6.397 4.26146 6.4342 4.23537C6.7764 3.99733 7.64702 3.39277 9.04577 2.42175C9.31733 2.2321 9.54422 2.00326 9.72648 1.73539C9.90888 1.46763 9.99998 1.18674 9.99998 0.892877C9.99998 0.647308 9.91158 0.437096 9.73485 0.262261C9.55814 0.0873879 9.34884 0 9.1071 0H0.892818C0.606379 0 0.385945 0.0967111 0.231555 0.290133C0.0771851 0.483595 0 0.725411 0 1.01556C0 1.24993 0.10234 1.50391 0.306923 1.77733C0.511486 2.05077 0.729183 2.26564 0.959801 2.42186Z" fill="#8E98A1"/>
<path d="M9.44188 3.01895C8.22177 3.84476 7.29531 4.48656 6.66296 4.9442C6.45091 5.10039 6.27889 5.22231 6.14678 5.30968C6.01467 5.39711 5.83898 5.48639 5.61945 5.57749C5.39999 5.66873 5.19546 5.71421 5.0057 5.71421H5.00001H4.9944C4.80467 5.71421 4.60003 5.66873 4.38057 5.57749C4.16112 5.48639 3.98531 5.39711 3.85324 5.30968C3.72121 5.22231 3.54913 5.10039 3.3371 4.9442C2.83484 4.57592 1.91038 3.93409 0.563672 3.01895C0.351565 2.87767 0.163693 2.71574 0 2.53348V6.96415C0 7.20983 0.0873879 7.41993 0.262261 7.59478C0.437096 7.76969 0.647327 7.85712 0.892877 7.85712H9.10718C9.35267 7.85712 9.56288 7.76969 9.73774 7.59478C9.91265 7.41987 10 7.20985 10 6.96415V2.53348C9.84 2.71197 9.65404 2.8739 9.44188 3.01895Z" fill="#8E98A1"/>
</svg>
