<svg width="15" height="16" viewBox="0 0 15 16" fill="none" xmlns="http://www.w3.org/2000/svg">
<path d="M13.6 16H2.4C1.76348 16 1.15303 15.7471 0.702944 15.2971C0.252856 14.847 0 14.2365 0 13.6V2.4C0 1.76348 0.252856 1.15303 0.702944 0.702944C1.15303 0.252856 1.76348 0 2.4 0H13.6C13.8122 0 14.0157 0.0842854 14.1657 0.234315C14.3157 0.384344 14.4 0.587827 14.4 0.8V15.2C14.4 15.4122 14.3157 15.6157 14.1657 15.7657C14.0157 15.9157 13.8122 16 13.6 16ZM12.8 14.4V12.8H2.4C2.18783 12.8 1.98434 12.8843 1.83431 13.0343C1.68429 13.1843 1.6 13.3878 1.6 13.6C1.6 13.8122 1.68429 14.0157 1.83431 14.1657C1.98434 14.3157 2.18783 14.4 2.4 14.4H12.8ZM7.2 6.4C7.62435 6.4 8.03131 6.23143 8.33137 5.93137C8.63143 5.63131 8.8 5.22435 8.8 4.8C8.8 4.37565 8.63143 3.96869 8.33137 3.66863C8.03131 3.36857 7.62435 3.2 7.2 3.2C6.77565 3.2 6.36869 3.36857 6.06863 3.66863C5.76857 3.96869 5.6 4.37565 5.6 4.8C5.6 5.22435 5.76857 5.63131 6.06863 5.93137C6.36869 6.23143 6.77565 6.4 7.2 6.4ZM4.8 9.6H9.6C9.6 8.96348 9.34714 8.35303 8.89706 7.90294C8.44697 7.45286 7.83652 7.2 7.2 7.2C6.56348 7.2 5.95303 7.45286 5.50294 7.90294C5.05286 8.35303 4.8 8.96348 4.8 9.6Z" fill="#0047D1"/>
</svg>
