<svg width="30" height="31" viewBox="0 0 30 31" fill="none" xmlns="http://www.w3.org/2000/svg">
<path fill-rule="evenodd" clip-rule="evenodd" d="M11.6335 7.90942C9.84933 7.90942 8.39798 9.36078 8.39798 11.145C8.39798 12.9292 9.84933 14.3805 11.6335 14.3805C13.4177 14.3805 14.8691 12.9292 14.8691 11.145C14.8691 9.36078 13.4177 7.90942 11.6335 7.90942ZM10.381 11.1449C10.381 10.4544 10.943 9.89244 11.6335 9.89244C12.324 9.89244 12.8861 10.4544 12.8861 11.1449C12.886 11.8355 12.324 12.3975 11.6335 12.3975C10.943 12.3975 10.381 11.8355 10.381 11.1449Z" fill="#0047D1"/>
<path d="M21.2544 9.37781C20.8672 8.99059 20.2393 8.99061 19.8521 9.3778L8.74478 20.4852C8.35757 20.8724 8.35757 21.5002 8.74478 21.8874C8.93834 22.081 9.19236 22.1779 9.44585 22.1779C9.69929 22.1779 9.95342 22.0811 10.147 21.8874L21.2543 10.7801C21.6416 10.3928 21.6416 9.76506 21.2544 9.37781Z" fill="#0047D1"/>
<path fill-rule="evenodd" clip-rule="evenodd" d="M18.3655 16.8853C16.5813 16.8853 15.1299 18.3366 15.1299 20.1208C15.1299 21.905 16.5813 23.3564 18.3655 23.3564C20.1497 23.3564 21.601 21.905 21.601 20.1208C21.601 18.3366 20.1497 16.8853 18.3655 16.8853ZM17.1129 20.1208C17.1129 19.4303 17.6749 18.8683 18.3655 18.8683C19.056 18.8683 19.618 19.4303 19.618 20.1208C19.618 20.8113 19.056 21.3733 18.3655 21.3733C17.675 21.3733 17.1129 20.8113 17.1129 20.1208Z" fill="#0047D1"/>
<path fill-rule="evenodd" clip-rule="evenodd" d="M16.8725 1.65412C15.8226 0.638441 14.1767 0.638371 13.1268 1.65412L11.3457 3.37731C11.1868 3.53101 10.9711 3.60104 10.752 3.5702L8.2984 3.22312C6.85185 3.01841 5.52051 3.98606 5.26813 5.42479L4.84 7.86562C4.80178 8.08338 4.66842 8.26696 4.47316 8.3706L2.28406 9.53211C0.993731 10.2167 0.48511 11.7821 1.12659 13.0945L2.21487 15.3208C2.31197 15.5195 2.31196 15.7464 2.21488 15.945L1.12653 18.1714C0.485049 19.4837 0.993679 21.049 2.28401 21.7337L4.47314 22.8952C4.66841 22.9988 4.80177 23.1824 4.84 23.4001L5.26813 25.8411C5.49787 27.1507 6.62161 28.07 7.91305 28.0699C8.04014 28.0699 8.16901 28.061 8.29846 28.0427L10.7523 27.6956C10.9709 27.6645 11.1868 27.7347 11.3458 27.8885L13.1268 29.6115C13.6515 30.119 14.3254 30.3733 14.9997 30.3732C15.6737 30.3732 16.348 30.1189 16.8724 29.6115L18.6536 27.8885C18.8124 27.7348 19.0282 27.6648 19.2473 27.6956L21.7009 28.0427C23.1476 28.2473 24.4788 27.2797 24.7311 25.841L25.1593 23.4002C25.1976 23.1824 25.3309 22.9988 25.5262 22.8952L27.7153 21.7337C29.0056 21.0491 29.5142 19.4837 28.8727 18.1713L27.7844 15.9449C27.6873 15.7462 27.6873 15.5193 27.7844 15.3207L28.8727 13.0943C29.5142 11.7819 29.0056 10.2166 27.7153 9.53199L25.5261 8.37046C25.3309 8.26689 25.1975 8.08326 25.1593 7.86555L24.7311 5.42461C24.4788 3.98586 23.1469 3.01835 21.7009 3.22295L19.2472 3.57003C19.0281 3.60096 18.8125 3.53083 18.6536 3.37714L16.8725 1.65412ZM14.5055 3.07947C14.7828 2.81122 15.2162 2.81119 15.4936 3.07947L17.2747 4.80249C17.8759 5.38407 18.6966 5.65079 19.5248 5.53356L21.9785 5.18648C22.3605 5.13244 22.7112 5.38717 22.7779 5.76728L23.206 8.20825C23.3506 9.03212 23.8578 9.73024 24.5967 10.1222L26.7858 11.2837C27.1267 11.4646 27.2606 11.8767 27.0911 12.2235L26.0028 14.4498C25.6355 15.2013 25.6355 16.0642 26.0028 16.8156L27.0911 19.042C27.2607 19.3888 27.1267 19.801 26.7858 19.9819L24.5967 21.1434C23.8579 21.5355 23.3506 22.2335 23.2061 23.0574L22.778 25.4983C22.7113 25.8784 22.3609 26.1331 21.9786 26.0791L19.5249 25.732C18.6965 25.6147 17.876 25.8816 17.2748 26.4631L15.4937 28.1861C15.2164 28.4543 14.783 28.4544 14.5055 28.1861L12.7245 26.4631C12.2165 25.9717 11.5517 25.7049 10.8576 25.7049C10.7305 25.7049 10.6025 25.7139 10.4744 25.732L8.02067 26.0791C7.63877 26.1331 7.28798 25.8784 7.22127 25.4983L6.79308 23.0573C6.64853 22.2334 6.14133 21.5353 5.40246 21.1433L3.21334 19.9818C2.87241 19.8009 2.7385 19.3888 2.90797 19.0421L3.99632 16.8157C4.36361 16.0642 4.36361 15.2014 3.99632 14.4499L2.90798 12.2235C2.7385 11.8767 2.87242 11.4646 3.21335 11.2837L5.40247 10.1222C6.14126 9.73012 6.64853 9.03207 6.79302 8.20819L7.22116 5.76728C7.28788 5.38715 7.6383 5.1325 8.02058 5.18648L10.4743 5.53356C11.3023 5.65079 12.1232 5.38401 12.7243 4.8025L14.5055 3.07947Z" fill="#0047D1"/>
</svg>
