<svg width="22" height="20" viewBox="0 0 22 20" fill="none" xmlns="http://www.w3.org/2000/svg">
<path d="M20.6201 1.29131e-06H5.92697C5.80656 -9.97681e-05 5.68731 0.0235171 5.57602 0.0695036C5.46474 0.11549 5.3636 0.182946 5.27838 0.268018C5.19317 0.353091 5.12554 0.454116 5.07937 0.565324C5.0332 0.676531 5.00938 0.795745 5.00928 0.916157V5.00001L13.5239 7.50002L21.5385 5.00001V0.916157C21.5384 0.79568 21.5146 0.676404 21.4684 0.565146C21.4222 0.453888 21.3545 0.352829 21.2692 0.267746C21.1839 0.182663 21.0826 0.115224 20.9713 0.0692826C20.8599 0.0233414 20.7406 -0.000200894 20.6201 1.29131e-06Z" fill="#41A5EE"/>
<path d="M21.5385 4.99976H5.00928V9.99977L13.5239 11.4998L21.5385 9.99977V4.99976Z" fill="#2B7CD3"/>
<path d="M5.00928 10V15L13.0231 16L21.5385 15V10H5.00928Z" fill="#185ABD"/>
<path d="M5.92697 20H20.6193C20.7399 20.0003 20.8593 19.9768 20.9707 19.931C21.0822 19.8851 21.1835 19.8176 21.2689 19.7325C21.3543 19.6474 21.422 19.5464 21.4683 19.435C21.5146 19.3237 21.5384 19.2044 21.5385 19.0839V15H5.00928V19.0839C5.00938 19.2043 5.0332 19.3235 5.07937 19.4347C5.12554 19.5459 5.19317 19.6469 5.27838 19.732C5.3636 19.8171 5.46474 19.8845 5.57602 19.9305C5.68731 19.9765 5.80656 20.0001 5.92697 20Z" fill="#103F91"/>
<path opacity="0.1" d="M11.1031 4H5.00928V16.5H11.1031C11.346 16.4988 11.5785 16.402 11.7504 16.2305C11.9224 16.059 12.0198 15.8267 12.0216 15.5839V4.91616C12.0198 4.67334 11.9224 4.44102 11.7504 4.26953C11.5785 4.09805 11.346 4.00121 11.1031 4Z" fill="black"/>
<path opacity="0.2" d="M10.6024 4.50024H5.00928V17.0003H10.6024C10.8452 16.9991 11.0778 16.9022 11.2497 16.7307C11.4216 16.5593 11.519 16.3269 11.5208 16.0841V5.4164C11.519 5.17358 11.4216 4.94126 11.2497 4.76978C11.0778 4.59829 10.8452 4.50145 10.6024 4.50024Z" fill="black"/>
<path opacity="0.2" d="M10.6024 4.50024H5.00928V16.0003H10.6024C10.8452 15.9991 11.0778 15.9022 11.2497 15.7307C11.4216 15.5593 11.519 15.3269 11.5208 15.0841V5.4164C11.519 5.17358 11.4216 4.94126 11.2497 4.76978C11.0778 4.59829 10.8452 4.50145 10.6024 4.50024Z" fill="black"/>
<path opacity="0.2" d="M10.1016 4.50024H5.00928V16.0003H10.1016C10.3444 15.9991 10.577 15.9022 10.7489 15.7307C10.9208 15.5593 11.0182 15.3269 11.0201 15.0841V5.4164C11.0182 5.17358 10.9208 4.94126 10.7489 4.76978C10.577 4.59829 10.3444 4.50145 10.1016 4.50024Z" fill="black"/>
<path d="M0.918464 4.50025H10.1016C10.3448 4.50004 10.5782 4.59642 10.7504 4.76822C10.9226 4.94001 11.0196 5.17315 11.02 5.4164V14.5841C11.0196 14.8274 10.9226 15.0605 10.7504 15.2323C10.5782 15.4041 10.3448 15.5005 10.1016 15.5003H0.918464C0.797987 15.5005 0.678651 15.4769 0.567277 15.431C0.455903 15.385 0.354674 15.3176 0.269377 15.2325C0.18408 15.1474 0.116386 15.0464 0.0701645 14.9351C0.0239433 14.8239 0.000100902 14.7046 0 14.5841V5.4164C0.000100902 5.29592 0.0239433 5.17665 0.0701645 5.06539C0.116386 4.95413 0.18408 4.85307 0.269377 4.76799C0.354674 4.68291 0.455903 4.61547 0.567277 4.56953C0.678651 4.52359 0.797987 4.50004 0.918464 4.50025Z" fill="url(#paint0_linear_205:15819)"/>
<path d="M3.76919 11.5292C3.78688 11.6708 3.79919 11.7939 3.80457 11.8992H3.82611C3.83381 11.7992 3.85073 11.6785 3.87611 11.5377C3.9015 11.3969 3.92381 11.2777 3.94457 11.18L4.90996 7.02077H6.15919L7.1592 11.1177C7.21744 11.3711 7.25907 11.6281 7.28381 11.8869H7.30074C7.31911 11.6349 7.3538 11.3844 7.40458 11.1369L8.20381 7.01538H9.33997L7.93689 12.9754H6.60843L5.65689 9.03231C5.62919 8.91846 5.59791 8.77026 5.56304 8.58769C5.52817 8.40513 5.50663 8.27179 5.49842 8.18769H5.48227C5.4715 8.28461 5.44996 8.42846 5.41766 8.61923C5.38535 8.81077 5.35996 8.95154 5.34073 9.04385L4.44611 12.9777H3.09534L1.68457 7.02077H2.83842L3.70842 11.1885C3.73439 11.301 3.75467 11.4147 3.76919 11.5292Z" fill="white"/>
<defs>
<linearGradient id="paint0_linear_205:15819" x1="1.91847" y1="3.78024" x2="9.10156" y2="16.2203" gradientUnits="userSpaceOnUse">
<stop stop-color="#2368C4"/>
<stop offset="0.5" stop-color="#1A5DBE"/>
<stop offset="1" stop-color="#1146AC"/>
</linearGradient>
</defs>
</svg>
