<svg width="22" height="20" viewBox="0 0 22 20" fill="none" xmlns="http://www.w3.org/2000/svg">
<path d="M13.5239 9.50001L5.00928 8V19.0839C5.00938 19.2043 5.0332 19.3235 5.07937 19.4347C5.12554 19.5459 5.19317 19.647 5.27838 19.732C5.3636 19.8171 5.46474 19.8846 5.57602 19.9305C5.68731 19.9765 5.80656 20.0001 5.92697 20H20.6193C20.7399 20.0003 20.8593 19.9769 20.9708 19.931C21.0822 19.8851 21.1835 19.8177 21.2689 19.7326C21.3543 19.6475 21.4221 19.5464 21.4683 19.4351C21.5146 19.3238 21.5385 19.2044 21.5386 19.0839V15L13.5239 9.50001Z" fill="#185C37"/>
<path d="M13.5239 3.22965e-07H5.92697C5.80656 -0.000100737 5.68731 0.0235162 5.57602 0.0695027C5.46474 0.115489 5.3636 0.182945 5.27838 0.268018C5.19317 0.353091 5.12554 0.454115 5.07937 0.565323C5.0332 0.676531 5.00938 0.795745 5.00928 0.916157V5.00002L13.5239 10L18.0324 11.5L21.5386 10V5.00002L13.5239 3.22965e-07Z" fill="#21A366"/>
<path d="M5.00928 5H13.5239V10H5.00928V5Z" fill="#107C41"/>
<path opacity="0.1" d="M11.1031 4H5.00928V16.5H11.1031C11.346 16.4988 11.5785 16.402 11.7505 16.2305C11.9224 16.059 12.0198 15.8267 12.0216 15.5839V4.91616C12.0198 4.67334 11.9224 4.44102 11.7505 4.26953C11.5785 4.09805 11.346 4.00121 11.1031 4Z" fill="black"/>
<path opacity="0.2" d="M10.6024 4.50024H5.00928V17.0003H10.6024C10.8452 16.9991 11.0778 16.9022 11.2497 16.7308C11.4216 16.5593 11.519 16.3269 11.5208 16.0841V5.4164C11.519 5.17358 11.4216 4.94126 11.2497 4.76978C11.0778 4.59829 10.8452 4.50145 10.6024 4.50024Z" fill="black"/>
<path opacity="0.2" d="M10.6024 4.50024H5.00928V16.0003H10.6024C10.8452 15.9991 11.0778 15.9022 11.2497 15.7308C11.4216 15.5593 11.519 15.3269 11.5208 15.0841V5.4164C11.519 5.17358 11.4216 4.94126 11.2497 4.76978C11.0778 4.59829 10.8452 4.50145 10.6024 4.50024Z" fill="black"/>
<path opacity="0.2" d="M10.1016 4.50024H5.00928V16.0003H10.1016C10.3444 15.9991 10.577 15.9022 10.7489 15.7308C10.9208 15.5593 11.0183 15.3269 11.0201 15.0841V5.4164C11.0183 5.17358 10.9208 4.94126 10.7489 4.76978C10.577 4.59829 10.3444 4.50145 10.1016 4.50024Z" fill="black"/>
<path d="M0.918465 4.50025H10.1016C10.3448 4.50004 10.5782 4.59642 10.7504 4.76822C10.9227 4.94001 11.0196 5.17315 11.02 5.4164V14.5841C11.0196 14.8274 10.9227 15.0605 10.7504 15.2323C10.5782 15.4041 10.3448 15.5005 10.1016 15.5003H0.918465C0.797988 15.5005 0.678652 15.4769 0.567278 15.431C0.455903 15.3851 0.354675 15.3176 0.269377 15.2325C0.18408 15.1475 0.116386 15.0464 0.0701646 14.9351C0.0239434 14.8239 0.000100902 14.7046 0 14.5841V5.4164C0.000100902 5.29593 0.0239434 5.17665 0.0701646 5.06539C0.116386 4.95413 0.18408 4.85307 0.269377 4.76799C0.354675 4.68291 0.455903 4.61547 0.567278 4.56953C0.678652 4.52359 0.797988 4.50004 0.918465 4.50025Z" fill="url(#paint0_linear_205:15818)"/>
<path d="M2.84619 12.9792L4.77774 9.99153L3.0085 7.02075H4.42927L5.39466 8.92307C5.48389 9.10307 5.54851 9.23691 5.57774 9.32614H5.59082C5.65389 9.18153 5.72082 9.0423 5.79082 8.90614L6.82313 7.02383H8.13083L6.3162 9.97769L8.17698 12.9815H6.78544L5.67005 10.8962C5.61826 10.8065 5.57425 10.7126 5.53851 10.6154H5.52005C5.48752 10.7101 5.44416 10.8007 5.39082 10.8854L4.24235 12.9792H2.84619Z" fill="white"/>
<path d="M20.6201 1.29132e-06H13.5239V5.00002H21.5386V0.916158C21.5385 0.795681 21.5146 0.676405 21.4684 0.565147C21.4222 0.453888 21.3545 0.35283 21.2692 0.267746C21.1839 0.182663 21.0827 0.115224 20.9713 0.0692827C20.8599 0.0233414 20.7406 -0.000200894 20.6201 1.29132e-06Z" fill="#33C481"/>
<path d="M13.5239 10H21.5386V15H13.5239V10Z" fill="#107C41"/>
<defs>
<linearGradient id="paint0_linear_205:15818" x1="1.91847" y1="3.78024" x2="9.10157" y2="16.2203" gradientUnits="userSpaceOnUse">
<stop stop-color="#18884F"/>
<stop offset="0.5" stop-color="#117E43"/>
<stop offset="1" stop-color="#0B6631"/>
</linearGradient>
</defs>
</svg>
