<svg width="15" height="16" viewBox="0 0 15 16" fill="none" xmlns="http://www.w3.org/2000/svg">
<path fill-rule="evenodd" clip-rule="evenodd" d="M0 13.6C0 14.2365 0.252856 14.847 0.702944 15.2971C1.15303 15.7471 1.76348 16 2.4 16H12C12.6365 16 13.247 15.7471 13.6971 15.2971C14.1471 14.847 14.4 14.2365 14.4 13.6V5.4624C14.3997 4.82621 14.1467 4.21619 13.6968 3.7664L10.6344 0.7024C10.1843 0.252575 9.57395 -7.6241e-05 8.9376 1.72579e-08H2.4C1.76348 1.72579e-08 1.15303 0.252856 0.702944 0.702944C0.252856 1.15303 0 1.76348 0 2.4V13.6ZM11.2 7.2C11.2 6.98783 11.1157 6.78434 10.9657 6.63432C10.8157 6.48429 10.6122 6.4 10.4 6.4C10.1878 6.4 9.98434 6.48429 9.83431 6.63432C9.68429 6.78434 9.6 6.98783 9.6 7.2V12C9.6 12.2122 9.68429 12.4157 9.83431 12.5657C9.98434 12.7157 10.1878 12.8 10.4 12.8C10.6122 12.8 10.8157 12.7157 10.9657 12.5657C11.1157 12.4157 11.2 12.2122 11.2 12V7.2ZM8 8.8C8 8.58783 7.91571 8.38434 7.76568 8.23431C7.61566 8.08429 7.41217 8 7.2 8C6.98783 8 6.78434 8.08429 6.63431 8.23431C6.48429 8.38434 6.4 8.58783 6.4 8.8V12C6.4 12.2122 6.48429 12.4157 6.63431 12.5657C6.78434 12.7157 6.98783 12.8 7.2 12.8C7.41217 12.8 7.61566 12.7157 7.76568 12.5657C7.91571 12.4157 8 12.2122 8 12V8.8ZM4.8 10.396C4.79894 10.1838 4.71364 9.98077 4.56286 9.83149C4.41208 9.68221 4.20817 9.59894 3.996 9.6C3.78383 9.60106 3.58076 9.68636 3.43149 9.83714C3.28221 9.98792 3.19894 10.1918 3.2 10.404L3.208 12.004C3.20906 12.2162 3.29436 12.4192 3.44514 12.5685C3.59592 12.7178 3.79983 12.8011 4.012 12.8C4.22417 12.7989 4.42723 12.7136 4.57651 12.5629C4.72579 12.4121 4.80906 12.2082 4.808 11.996L4.8 10.396Z" fill="#0047D1"/>
</svg>
