<svg width="26" height="25" viewBox="0 0 26 25" fill="none" xmlns="http://www.w3.org/2000/svg">
<path d="M23.1411 25H2.85902C2.32129 24.9994 1.80576 24.7855 1.42553 24.4053C1.04529 24.0251 0.831414 23.5095 0.830811 22.9718V11.2512C0.831056 10.9686 0.890208 10.6893 1.00449 10.4309C1.11877 10.1725 1.28567 9.94072 1.49454 9.75044L11.6348 0.530473C12.0073 0.189286 12.4941 2.34668e-05 12.9992 2.18211e-09C13.5043 -2.34624e-05 13.9911 0.189193 14.3636 0.530346L24.5055 9.75044V9.75056C24.7144 9.94084 24.8813 10.1726 24.9956 10.431C25.1099 10.6894 25.169 10.9688 25.1693 11.2513V22.9718C25.1687 23.5095 24.9548 24.0251 24.5746 24.4053C24.1943 24.7855 23.6788 24.9994 23.1411 25ZM12.9993 2.03109L2.85902 11.2511V22.9718H23.1411V11.2512L12.9993 2.03109Z" fill="#0047D1"/>
<rect x="8.56335" y="10.7759" width="1.90144" height="9.12692" rx="0.950721" fill="#0047D1"/>
<rect x="11.986" y="9.25439" width="1.90144" height="10.6481" rx="0.950721" fill="#0047D1"/>
<rect x="15.4086" y="12.9058" width="1.90144" height="6.99731" rx="0.950721" fill="#0047D1"/>
</svg>
