<svg width="25" height="29" viewBox="0 0 25 29" fill="none" xmlns="http://www.w3.org/2000/svg">
<path d="M24.6274 28.1177H8.77534C7.57513 28.1177 6.42082 27.6926 5.50918 26.9144C4.39422 25.9661 3.75148 24.5797 3.75148 23.1148V18.1184C3.75148 15.3586 6.00107 13.1155 8.77534 13.1155C11.5431 13.1155 13.7927 15.3586 13.7927 18.1184H11.3791C11.3791 16.6862 10.2117 15.5221 8.77534 15.5221C7.33902 15.5221 6.17159 16.6862 6.17159 18.1184V23.1148C6.17159 23.8734 6.50608 24.5928 7.08323 25.0898C7.55545 25.4953 8.15228 25.7111 8.77534 25.7111H22.2139V3.17502L13.7795 5.36584V8.26297H11.366V3.50855L24.6274 0.055542V28.1177Z" fill="#0E4FC1"/>
<path d="M2.41354 28.1178H-1.52588e-05V9.55133H14.6846C18.0492 9.55133 20.7841 12.2784 20.7841 15.6333C20.7841 18.9882 18.0492 21.7153 14.6846 21.7153H13.8123V24.4686H11.3988V19.3021H14.6912C16.7243 19.3021 18.3771 17.6541 18.3771 15.6268C18.3771 13.5995 16.7243 11.9514 14.6912 11.9514H2.42666V28.1178H2.41354Z" fill="#0E4FC1"/>
</svg>
