<svg width="16" height="16" viewBox="0 0 16 16" fill="none" xmlns="http://www.w3.org/2000/svg">
<path fill-rule="evenodd" clip-rule="evenodd" d="M15.7806 0.209806C15.4924 -0.0721514 15.0294 -0.0696011 14.7444 0.215543L11.8128 3.14867C10.6455 2.52361 9.34834 2.18182 8 2.18182C4.61952 2.18182 1.56086 4.33023 0.0625685 7.70488C-0.0208561 7.89278 -0.0208561 8.10722 0.0625685 8.29512C0.739332 9.81942 1.73445 11.0935 2.93379 12.0325L0.213644 14.7541C-0.0734732 15.0414 -0.0708585 15.5061 0.219442 15.7902C0.507593 16.0722 0.970636 16.0696 1.25563 15.7845L4.18717 12.8513C5.35452 13.4764 6.65166 13.8182 8 13.8182C11.3805 13.8182 14.4391 11.6698 15.9374 8.29512C16.0209 8.10722 16.0209 7.89278 15.9374 7.70488C15.2607 6.18058 14.2655 4.90646 13.0662 3.96751L15.7864 1.24591C16.0735 0.958636 16.0709 0.493867 15.7806 0.209806ZM10.7278 4.23426C9.8737 3.8453 8.95065 3.63636 8 3.63636C5.31009 3.63636 2.84117 5.30915 1.52936 8C2.13041 9.23289 2.97436 10.2521 3.97118 10.9945L5.49124 9.47365C5.23683 9.04147 5.09091 8.53778 5.09091 8C5.09091 6.39335 6.39335 5.09091 8 5.09091C8.53722 5.09091 9.04043 5.23653 9.4723 5.49045L10.7278 4.23426ZM10.5088 6.52635L12.0288 5.00546C13.0256 5.74794 13.8696 6.76711 14.4706 8C13.1588 10.6909 10.6899 12.3636 8 12.3636C7.04935 12.3636 6.1263 12.1547 5.27218 11.7657L6.5277 10.5095C6.95957 10.7635 7.46278 10.9091 8 10.9091C9.60665 10.9091 10.9091 9.60665 10.9091 8C10.9091 7.46222 10.7632 6.95853 10.5088 6.52635ZM8.37033 6.59302C8.25209 6.56198 8.12798 6.54545 8 6.54545C7.19668 6.54545 6.54545 7.19668 6.54545 8C6.54545 8.12825 6.56205 8.25262 6.59322 8.37109L8.37033 6.59302ZM7.62967 9.40698L9.40678 7.62891C9.43795 7.74738 9.45455 7.87175 9.45455 8C9.45455 8.80332 8.80332 9.45455 8 9.45455C7.87202 9.45455 7.74791 9.43802 7.62967 9.40698Z" fill="#B5B5BE"/>
</svg>
