<svg width="170" height="170" viewBox="0 0 170 170" fill="none" xmlns="http://www.w3.org/2000/svg">
<circle cx="85" cy="85" r="85" fill="#E2EBF6"/>
<mask id="mask0_571:3873" style="mask-type:alpha" maskUnits="userSpaceOnUse" x="0" y="0" width="170" height="170">
<circle cx="85" cy="85" r="85" fill="#C4C4C4"/>
</mask>
<g mask="url(#mask0_571:3873)">
<path d="M209.195 173.491H-36.6953C-34.001 166.621 -29.0254 160.792 -22.0112 159.062C-11.7507 156.536 -0.892228 163.481 9.34615 160.871C15.1625 159.388 19.7417 155.069 24.5533 151.482C42.706 137.948 67.5821 133.948 89.0622 141.111C100.29 144.854 110.522 151.399 122.024 154.182C136.896 157.782 152.451 154.797 167.745 154.305C182.64 153.825 203.983 159.895 209.195 173.491Z" fill="#F6F8FA"/>
<path opacity="0.4" d="M152.411 62.6003C151.06 62.162 149.606 62.162 148.255 62.6003C147.478 62.8594 146.785 63.3212 146.247 63.9379C145.56 64.7516 145.053 65.8785 145.103 66.9577C145.139 67.5161 145.315 68.0563 145.617 68.5278C145.918 68.9992 146.334 69.3865 146.826 69.6533C147.697 70.1 149.008 70.1927 149.771 69.4777C150.353 68.9334 150.323 67.9985 149.947 67.3498C149.348 66.313 148.039 65.8915 146.902 66.0358C146.254 66.1288 145.631 66.351 145.07 66.6894C144.51 67.0279 144.023 67.4755 143.639 68.0057C143.276 68.5075 143.014 69.0743 142.865 69.6752C142.727 70.233 142.67 70.8728 142.89 71.4182C142.929 71.5468 143.017 71.6555 143.134 71.722C143.251 71.7885 143.389 71.8077 143.52 71.7758C143.763 71.7089 143.981 71.4041 143.877 71.146C143.814 71.0007 143.778 70.8449 143.772 70.6866C143.762 70.491 143.778 70.2951 143.817 70.1035C143.909 69.6606 144.074 69.2364 144.307 68.849C144.779 68.0771 145.508 67.4966 146.366 67.21C147.187 66.9356 148.156 66.9382 148.814 67.5601C148.937 67.6705 149.037 67.8034 149.109 67.9516C149.119 67.9683 149.149 68.0433 149.114 67.955C149.129 67.995 149.143 68.0359 149.155 68.0779C149.163 68.1039 149.17 68.1306 149.176 68.1565C149.185 68.1917 149.197 68.356 149.189 68.2062C149.191 68.2471 149.227 68.4885 149.188 68.5117C149.177 68.5186 149.219 68.3662 149.195 68.4557C149.191 68.4713 149.191 68.4878 149.186 68.5031C149.177 68.5466 149.165 68.5895 149.15 68.6315C149.084 68.7381 148.986 68.8204 148.869 68.8659C148.944 68.8307 148.791 68.8927 148.793 68.8924C148.761 68.902 148.729 68.9099 148.697 68.9176C148.603 68.9423 148.507 68.9571 148.41 68.9619C148.243 68.9736 148.076 68.9692 147.91 68.9487C147.732 68.9171 147.559 68.8653 147.393 68.7942C147.03 68.6178 146.721 68.3474 146.499 68.0112C146.276 67.6749 146.147 67.2851 146.126 66.8822C146.136 66.4241 146.239 65.9727 146.429 65.5558C146.505 65.3866 146.591 65.2224 146.688 65.0642C146.772 64.9229 146.867 64.7882 146.972 64.6612C147.078 64.5352 147.192 64.416 147.314 64.3045C147.373 64.2501 147.433 64.1978 147.496 64.1473C147.617 64.0486 147.417 64.2023 147.543 64.1112C147.582 64.0834 147.62 64.0562 147.659 64.0297C147.794 63.9381 147.935 63.8547 148.08 63.78C148.156 63.7412 148.232 63.7049 148.309 63.6703C148.325 63.6629 148.399 63.6331 148.313 63.668C148.363 63.648 148.413 63.6287 148.463 63.6102C148.797 63.4909 149.142 63.4044 149.493 63.352C149.64 63.3286 149.387 63.3616 149.534 63.3469C149.578 63.3425 149.622 63.3371 149.667 63.3328C149.755 63.3246 149.842 63.3181 149.93 63.3135C150.103 63.3044 150.276 63.3022 150.449 63.3069C150.616 63.3111 150.783 63.3214 150.949 63.3378C150.985 63.3414 151.233 63.3729 151.092 63.3525C151.169 63.3636 151.246 63.3752 151.323 63.3885C151.599 63.4356 151.871 63.5018 152.138 63.5865C152.768 63.7876 153.037 62.7993 152.411 62.5991L152.411 62.6003Z" fill="#0047D1"/>
<path opacity="0.4" d="M54.6296 43.8193C55.9359 43.3498 57.2983 44.2991 57.9128 45.4616C58.5177 46.6074 58.3767 48.2441 57.193 48.9771C56.6899 49.2886 55.9856 49.393 55.5468 48.9932C55.0893 48.5763 55.1172 48.0567 55.5694 47.6398C55.6753 47.5448 55.7907 47.4611 55.9137 47.3897C55.9854 47.3465 56.0586 47.3056 56.1334 47.2681C56.1608 47.2544 56.1885 47.2412 56.2163 47.2282C56.2921 47.1931 56.1058 47.2681 56.2435 47.2168C56.3541 47.175 56.4672 47.1398 56.582 47.1114C56.6364 47.0983 56.6913 47.0866 56.7467 47.0763C56.7786 47.0704 56.8106 47.0651 56.8425 47.06C56.7372 47.0767 56.8934 47.0553 56.9013 47.0546C57.1615 47.0306 57.4234 47.035 57.6826 47.0676C57.7694 47.0784 57.6135 47.0563 57.7002 47.0707C57.7343 47.0765 57.7685 47.0821 57.8024 47.0883C57.8621 47.0993 57.9215 47.1117 57.9808 47.1257C58.1254 47.1596 58.2681 47.2014 58.4081 47.2509C58.448 47.2649 58.5684 47.3111 58.5677 47.3107C58.525 47.2932 58.6042 47.3272 58.6028 47.3267C58.6348 47.3413 58.6667 47.3562 58.6983 47.3716C58.8328 47.4369 58.9633 47.51 59.0892 47.5906C59.3048 47.7269 59.4999 47.8932 59.6686 48.0847C59.8343 48.2706 59.9717 48.4801 60.0762 48.7062C60.097 48.7478 60.1146 48.791 60.1289 48.8352C60.1602 48.9216 60.1877 49.0096 60.213 49.0986C60.269 49.2893 60.311 49.4839 60.3385 49.6808C60.4281 50.4048 60.3126 51.1393 60.0053 51.8009C59.6981 52.4625 59.2113 53.0247 58.6004 53.4233C58.3567 53.5757 58.0801 53.6678 57.7937 53.692C57.5073 53.7162 57.2193 53.6717 56.9535 53.5624C56.8799 53.5268 56.8091 53.4858 56.7417 53.4395C56.661 53.3854 56.7797 53.4774 56.7331 53.434C56.721 53.4228 56.7086 53.4119 56.697 53.4C56.6817 53.384 56.668 53.3673 56.6534 53.3511C56.7869 53.4986 56.6689 53.3785 56.6771 53.3749C56.6656 53.3564 56.6552 53.3373 56.6459 53.3176C56.6745 53.362 56.6682 53.4065 56.6548 53.3324C56.6515 53.3148 56.6227 53.1657 56.632 53.2497C56.6406 53.3285 56.6339 53.1998 56.6334 53.1743C56.6329 53.1489 56.6369 53.1245 56.6376 53.0994C56.6376 53.1189 56.6118 53.2105 56.6355 53.1197C56.6513 53.0595 56.6627 52.9993 56.6821 52.9398C56.6919 52.9098 56.7442 52.7902 56.7036 52.8766C56.7306 52.8192 56.7598 52.7632 56.7914 52.7084C56.8253 52.6501 56.8617 52.5937 56.9013 52.5388C56.9054 52.533 56.9584 52.4643 56.9189 52.5151C56.9419 52.4861 56.9661 52.458 56.9905 52.4304C57.2025 52.1925 57.4502 51.989 57.7248 51.8272C57.8092 51.7763 57.8951 51.7273 57.983 51.6829C58.0127 51.6678 58.1505 51.6091 58.0382 51.6534C58.146 51.6108 58.2562 51.5746 58.3683 51.5449C58.5948 51.477 58.8306 51.4449 59.067 51.4495C59.2006 51.4475 59.3343 51.4524 59.4673 51.4644C59.5123 51.4654 59.5571 51.4713 59.6008 51.482C59.6817 51.4969 59.7623 51.5136 59.8422 51.5347C60.1086 51.5954 60.3596 51.7104 60.5796 51.8725C60.9851 52.2006 61.2707 52.6536 61.3918 53.161C61.5292 53.6897 61.5418 54.2431 61.4285 54.7775C61.3228 55.306 61.0912 55.8013 60.7534 56.2212C60.5821 56.4293 60.3806 56.6103 60.1554 56.7583C59.6055 57.117 60.1182 58.0049 60.6723 57.6427C61.941 56.8149 62.6212 55.2623 62.5211 53.7659C62.4851 53.0067 62.2297 52.2744 61.786 51.6574C61.3071 51.0268 60.6021 50.6067 59.8195 50.4858C58.343 50.2437 56.7646 50.832 55.9469 52.1281C55.6233 52.6408 55.4629 53.3418 55.7935 53.8919C56.2131 54.5898 57.2265 54.7873 57.9729 54.6953C58.8909 54.5828 59.6468 54.0282 60.222 53.3239C60.8607 52.5725 61.2612 51.6479 61.3727 50.668C61.4729 49.7562 61.2993 48.8351 60.874 48.0223C60.5163 47.401 59.9899 46.8939 59.3557 46.5596C58.1421 45.9074 56.5721 45.7818 55.3682 46.5217C54.5806 47.0058 53.9637 47.8594 54.2591 48.82C54.3992 49.2522 54.675 49.6277 55.0457 49.8906C55.4163 50.1535 55.8619 50.2897 56.3162 50.279C58.265 50.246 59.4928 48.2072 59.2658 46.4164C59.0296 44.5588 57.5101 42.8947 55.6181 42.6844C55.1921 42.6371 54.761 42.6872 54.3571 42.8306C54.2281 42.8697 54.119 42.9569 54.0524 43.0741C53.9858 43.1914 53.9669 43.3297 53.9995 43.4606C54.0366 43.5909 54.1234 43.7014 54.2413 43.7683C54.3591 43.8352 54.4985 43.8531 54.6294 43.8182L54.6296 43.8193Z" fill="#0047D1"/>
<path opacity="0.4" d="M111.526 57.5122C113.018 57.372 114.42 56.7384 115.512 55.7117C116.139 55.1002 116.576 54.3205 116.77 53.4665C117.013 52.4109 116.916 51.1582 116.312 50.2394C116.029 49.8294 115.658 49.4884 115.225 49.2421C114.793 48.9959 114.31 48.8506 113.813 48.8173C112.864 48.7771 111.651 49.1978 111.244 50.1329C110.919 50.8808 111.322 51.7683 111.967 52.2034C112.99 52.8936 114.325 52.7343 115.338 52.1125C115.888 51.7574 116.361 51.2949 116.729 50.7527C117.097 50.2104 117.351 49.5996 117.477 48.9567C117.698 47.8193 117.565 46.4083 116.704 45.5565C116.508 45.3617 116.142 45.4417 115.984 45.6412C115.903 45.749 115.867 45.884 115.883 46.0181C115.898 46.1521 115.965 46.2749 116.069 46.361C115.992 46.285 116.105 46.4068 116.11 46.4137C116.132 46.4413 116.153 46.4697 116.173 46.4985C116.211 46.5505 116.244 46.6065 116.27 46.6655C116.354 46.8453 116.417 47.0337 116.46 47.2273C116.544 47.6388 116.562 48.0609 116.513 48.4781C116.404 49.3885 115.973 50.2298 115.298 50.851C114.662 51.4304 113.792 51.8226 112.938 51.5522C112.766 51.5042 112.606 51.419 112.471 51.3027C112.445 51.2809 112.419 51.2583 112.394 51.2348C112.473 51.3101 112.369 51.2046 112.36 51.1937C112.342 51.1703 112.324 51.1469 112.307 51.1234C112.289 51.0989 112.2 50.9409 112.266 51.0708C112.222 50.983 112.202 50.8704 112.154 50.7876C112.157 50.7923 112.169 50.9075 112.159 50.8025C112.15 50.7496 112.148 50.6957 112.153 50.6422C112.178 50.4728 112.144 50.6589 112.173 50.5681C112.177 50.5558 112.229 50.4478 112.198 50.5024C112.224 50.4629 112.252 50.4249 112.282 50.3887C112.293 50.3727 112.374 50.2872 112.313 50.3462C112.439 50.2315 112.58 50.1356 112.733 50.0614C113.04 49.8961 113.387 49.8173 113.735 49.8332C113.663 49.8305 113.775 49.8379 113.791 49.8398C113.836 49.8449 113.88 49.8488 113.924 49.8553C114.014 49.8677 114.102 49.8853 114.189 49.908C114.129 49.892 114.216 49.9162 114.221 49.9178C114.274 49.9353 114.326 49.9529 114.377 49.9741C114.473 50.0128 114.566 50.0564 114.658 50.1046C114.988 50.2839 115.271 50.538 115.486 50.8466C115.946 51.5489 115.936 52.534 115.757 53.3123C115.736 53.4066 115.722 53.4528 115.707 53.5011C115.68 53.5853 115.651 53.6686 115.619 53.7507C115.555 53.9105 115.481 54.0659 115.398 54.2162C115.318 54.3605 115.451 54.1372 115.363 54.276C115.345 54.3044 115.327 54.3325 115.308 54.3603C115.262 54.4295 115.214 54.4973 115.164 54.5636C115.055 54.7078 114.937 54.8449 114.811 54.9743C114.788 54.9977 114.765 55.0208 114.742 55.0435C114.818 54.9687 114.696 55.0844 114.68 55.0983C114.614 55.1576 114.546 55.2151 114.476 55.2708C114.326 55.3913 114.169 55.5036 114.006 55.6071C113.933 55.6543 113.857 55.6984 113.782 55.7431C113.76 55.7563 113.668 55.8076 113.758 55.7582C113.717 55.7809 113.675 55.8027 113.633 55.8243C113.468 55.9088 113.3 55.9861 113.128 56.0564C112.824 56.1791 112.513 56.2818 112.196 56.3636C112.168 56.371 112.075 56.3915 112.186 56.3664C112.147 56.3752 112.108 56.384 112.069 56.3924C111.994 56.4086 111.918 56.4231 111.841 56.4365C111.7 56.4611 111.559 56.4803 111.417 56.4942C110.76 56.5594 110.868 57.5779 111.524 57.5126L111.526 57.5122Z" fill="#0047D1"/>
<path d="M69.2065 34.0001L67.582 35.0446L70.0558 38.8919L71.6803 37.8474L69.2065 34.0001Z" fill="#0047D1"/>
<path d="M101.304 67.6427L98.5098 71.8608L100.12 72.9273L102.914 68.7091L101.304 67.6427Z" fill="#0047D1"/>
<path d="M32.4484 37.9999L30 41.748L31.6169 42.8043L34.0653 39.0561L32.4484 37.9999Z" fill="#0047D1"/>
<path d="M164.394 84.8939L162.519 85.3568L163.717 90.2117L165.592 89.7489L164.394 84.8939Z" fill="#0047D1"/>
<path d="M168.259 46.3429L166.669 47.4388L169.615 51.7136L171.205 50.6176L168.259 46.3429Z" fill="#0047D1"/>
<path d="M26.928 65.5769L23.3174 69.8518L24.7928 71.098L28.4035 66.8231L26.928 65.5769Z" fill="#0047D1"/>
<path d="M56.5708 96.4971L53.0815 100.079L54.465 101.427L57.9543 97.8447L56.5708 96.4971Z" fill="#0047D1"/>
<path d="M131.754 91.9274L130.13 92.9719L132.604 96.8193L134.228 95.7748L131.754 91.9274Z" fill="#0047D1"/>
<path d="M101.633 157.214C88.4473 151.295 87.1995 127.397 87.8172 125.126C88.0454 124.287 87.6437 124.069 87.0475 124.127C86.2516 124.035 84.775 124.782 84.2941 125.04C83.8132 124.782 82.3366 124.034 81.5408 124.127C80.9438 124.069 80.5428 124.287 80.771 125.126C81.3887 127.397 80.1402 151.295 66.9554 157.214C64.185 158.458 65.1392 159.938 65.1392 159.938H103.449C103.449 159.938 104.403 158.458 101.633 157.214Z" fill="#0047D1"/>
<g opacity="0.09">
<path opacity="0.09" d="M103.448 159.94H100.99C100.99 159.94 101.945 158.458 99.1744 157.215C85.9888 151.296 86.4962 127.397 87.1142 125.127C87.2933 124.467 87.0826 124.191 86.6929 124.132C86.81 124.117 86.9284 124.116 87.0458 124.128C87.6427 124.07 88.0448 124.288 87.8165 125.127C87.1985 127.397 88.4468 151.296 101.632 157.215C104.404 158.457 103.448 159.94 103.448 159.94Z" fill="#1C1C1C"/>
</g>
<path d="M136.985 95.6356C133.145 101.607 128.499 103.275 123.315 104.746C118.218 106.193 113.816 107.441 111.03 112.131C110.348 113.244 109.843 114.456 109.534 115.725V115.728C109.462 116.031 109.406 116.338 109.366 116.647C109.32 117.051 109.176 117.438 108.948 117.775C108.754 118.059 108.49 118.289 108.182 118.443C107.874 118.597 107.532 118.67 107.188 118.655C106.152 118.655 105.547 118.236 105.195 117.715C104.881 117.235 104.754 116.657 104.837 116.09C104.854 115.968 104.872 115.847 104.892 115.725C105.248 113.627 105.999 111.616 107.106 109.799C110.819 103.547 116.796 101.851 122.068 100.353C126.903 98.982 130.239 97.6863 133.145 93.167C134.59 90.9162 136.13 85.7491 134.288 81.6424C132.854 78.447 130.506 76.5736 127.312 76.0715C118.593 74.702 114.497 83.1962 114.327 83.5579C114.065 84.0951 113.603 84.5082 113.041 84.7085C112.478 84.9089 111.859 84.8805 111.316 84.6295C110.774 84.3785 110.352 83.9249 110.14 83.3661C109.929 82.8072 109.945 82.1878 110.185 81.6407C111.256 79.5064 112.687 77.5735 114.417 75.9275C118.256 72.2756 122.962 70.7674 128.02 71.5627C132.701 72.2966 136.405 75.2129 138.453 79.7743C140.786 84.9748 139.455 91.7941 136.985 95.6356Z" fill="#0047D1"/>
<path d="M31.6115 95.6356C35.4513 101.607 40.4481 103.275 45.6328 104.746C50.7296 106.193 55.1313 107.441 57.9176 112.131C58.5994 113.244 59.1041 114.456 59.4135 115.725V115.728C59.4853 116.031 59.5414 116.338 59.5814 116.647C59.6277 117.051 59.771 117.438 59.999 117.775C60.1932 118.059 60.4568 118.289 60.7648 118.443C61.0729 118.597 61.4151 118.67 61.7592 118.655C62.795 118.655 63.4006 118.236 63.7524 117.715C64.0661 117.235 64.1932 116.657 64.1097 116.09C64.0935 115.968 64.0754 115.847 64.0557 115.725C63.6994 113.627 62.9481 111.616 61.8417 109.799C58.1283 103.547 52.1518 101.851 46.8793 100.353C42.044 98.982 38.357 97.6863 35.4513 93.167C34.0063 90.9162 32.8177 85.7491 34.6594 81.6424C36.0939 78.447 38.4413 76.5736 41.6349 76.0715C50.3539 74.702 54.45 83.1962 54.6203 83.5579C54.882 84.0951 55.3439 84.5082 55.9069 84.7085C56.4698 84.9089 57.0888 84.8805 57.6311 84.6295C58.1733 84.3785 58.5955 83.9249 58.807 83.3661C59.0184 82.8072 59.0023 82.1878 58.7621 81.6407C57.6919 79.5064 56.2603 77.5735 54.5308 75.9275C50.691 72.2756 45.9857 70.7674 40.9274 71.5627C36.2466 72.2966 32.542 75.2129 30.4948 79.7743C28.162 84.9748 29.1412 91.7941 31.6115 95.6356Z" fill="#0047D1"/>
<path d="M113.504 68.8102C113.414 68.0218 113.037 67.2941 112.445 66.7658C111.853 66.2375 111.087 65.9457 110.294 65.9459H58.6063C57.8127 65.9457 57.0469 66.2375 56.4547 66.7658C55.8626 67.2941 55.4855 68.0218 55.3956 68.8102C54.5641 76.1592 53.078 95.8661 59.3971 106.739C67.2677 120.283 79.2126 125.126 81.7857 125.126H87.1136C89.6865 125.126 101.632 120.283 109.502 106.739C115.822 95.8664 114.336 76.1592 113.504 68.8102Z" fill="#0047D1"/>
<g opacity="0.09">
<path opacity="0.09" d="M113.504 68.8102C113.414 68.0218 113.037 67.2941 112.445 66.7658C111.853 66.2375 111.087 65.9457 110.294 65.9459H99.9402C99.9402 65.9459 101.701 92.9721 98.4055 106.515C95.1103 120.058 87.0224 125.126 87.1146 125.126C89.6874 125.126 101.633 120.283 109.503 106.739C115.822 95.8664 114.336 76.1592 113.504 68.8102Z" fill="#1C1C1C"/>
</g>
<path d="M103.449 159.938H65.1558V169.089H103.449V159.938Z" fill="#1C1C1C"/>
<path d="M105.782 169.089H62.8223V171.29H105.782V169.089Z" fill="#1C1C1C"/>
<path d="M89.7549 96L84.5022 93.2658L79.2453 96L80.2512 90.2115L76 86.1107L81.8736 85.2678L84.5022 80L87.1244 85.2678L93 86.1107L88.749 90.2115L89.7549 96Z" fill="white"/>
</g>
</svg>
